<?xml version="1.0" standalone="no"?>
<!DOCTYPE svg PUBLIC "-//W3C//DTD SVG 20010904//EN"
 "http://www.w3.org/TR/2001/REC-SVG-20010904/DTD/svg10.dtd">
<svg version="1.0" xmlns="http://www.w3.org/2000/svg"
 width="463.000000pt" height="600.000000pt" viewBox="0 0 463.000000 600.000000"
 preserveAspectRatio="xMidYMid meet">

<g transform="translate(0.000000,600.000000) scale(0.100000,-0.100000)"
fill="#000000" stroke="none">
<path d="M1575 5898 c-75 -41 -117 -116 -117 -206 l0 -64 -37 36 c-59 57 -122
80 -221 79 -62 0 -99 -6 -138 -21 -49 -19 -54 -19 -58 -4 -20 69 -81 132 -127
132 -18 0 -19 -2 -5 -17 9 -10 27 -41 42 -70 14 -29 35 -57 47 -63 19 -11 16
-16 -54 -89 -85 -89 -123 -148 -154 -241 -12 -36 -24 -58 -26 -50 -48 158
-134 264 -259 320 l-46 20 6 45 c5 45 -17 195 -28 195 -3 0 -19 -14 -36 -31
-25 -27 -29 -38 -29 -88 1 -38 7 -67 18 -85 21 -32 17 -42 -22 -49 -45 -9
-109 -72 -121 -119 -29 -104 73 -183 170 -133 76 39 63 135 -18 135 -21 0 -35
-7 -42 -19 -13 -25 -13 -41 0 -41 6 0 10 6 10 14 0 26 28 40 55 28 18 -9 25
-19 25 -41 0 -38 -31 -61 -83 -61 -107 0 -117 144 -14 193 79 38 160 12 261
-84 l61 -57 -30 -12 c-16 -6 -45 -8 -65 -5 -35 7 -35 7 -16 -14 21 -24 84 -29
104 -9 17 17 31 0 53 -64 l18 -53 -72 -5 c-91 -7 -152 -37 -216 -105 -27 -29
-63 -79 -80 -113 l-31 -62 47 30 c26 17 79 40 118 51 141 41 168 52 206 86
l38 34 3 -33 c5 -57 -12 -161 -36 -213 -13 -27 -46 -81 -74 -118 -29 -37 -52
-72 -52 -78 0 -21 -18 -7 -23 19 -2 15 -11 42 -18 59 -17 41 -3 61 30 44 17
-10 21 -9 21 4 0 53 -48 72 -75 31 l-16 -24 -42 19 c-56 25 -137 25 -187 -1
-68 -35 -88 -108 -35 -132 33 -15 65 5 64 40 0 26 -1 26 -9 4 -12 -30 -38 -38
-57 -19 -21 20 -9 51 30 79 26 18 45 23 99 23 75 0 105 -16 146 -76 l23 -34
-38 -5 c-21 -3 -44 -9 -51 -14 -12 -7 -62 -80 -62 -90 0 -8 124 45 141 60 9 8
19 11 22 7 12 -12 7 -41 -23 -132 -17 -49 -33 -117 -36 -150 -4 -34 -10 -61
-13 -61 -3 0 -14 13 -23 30 -9 16 -41 45 -71 64 -30 20 -64 47 -75 61 -11 14
-23 25 -27 25 -16 0 4 -122 27 -167 30 -61 66 -87 124 -89 25 -1 47 -3 48 -5
2 -2 6 -26 10 -52 l6 -49 -29 7 c-20 4 -34 1 -45 -10 -21 -22 -20 -33 6 -75
l22 -35 6 35 c4 26 11 36 26 38 17 2 25 -9 48 -66 15 -39 45 -99 66 -135 l40
-65 -20 -44 c-16 -35 -20 -39 -25 -23 -34 110 -128 177 -203 146 -33 -14 -62
-58 -62 -93 0 -27 28 -58 52 -58 19 0 48 32 48 53 0 28 -19 28 -22 0 -2 -22
-8 -28 -28 -28 -50 0 -34 83 21 105 69 29 158 -37 180 -135 16 -71 5 -109 -33
-113 -18 -2 -31 4 -42 20 -16 22 -16 22 -16 -14 0 -41 17 -53 56 -37 15 5 28
8 29 7 1 -2 5 -33 8 -69 l6 -66 -39 -6 c-21 -3 -67 -22 -101 -43 -49 -30 -73
-38 -110 -38 -26 0 -54 6 -63 13 -23 19 -20 -1 7 -40 68 -103 264 -104 313 -1
l17 37 18 -42 c10 -23 34 -67 53 -98 27 -41 36 -66 36 -99 l0 -43 -52 4 c-58
4 -107 -17 -128 -56 -10 -20 -8 -21 38 -21 28 0 64 8 87 20 22 11 41 20 42 20
2 0 -4 -14 -12 -31 -43 -83 -148 -159 -220 -159 -124 0 -205 133 -130 214 29
31 74 34 98 8 23 -25 21 -48 -5 -66 l-22 -16 22 0 c26 0 43 34 32 65 -4 11
-19 28 -33 39 -59 44 -137 -22 -137 -115 0 -42 5 -55 35 -87 19 -21 54 -47 77
-57 24 -11 45 -20 47 -22 2 -2 -4 -12 -14 -23 -11 -12 -31 -20 -52 -20 -45 0
-42 -17 6 -30 27 -7 47 -7 70 1 29 10 32 15 29 44 -4 31 -1 34 48 55 96 39
194 164 194 248 0 17 4 32 10 32 19 0 100 -169 100 -210 0 -4 -17 -11 -37 -15
-21 -4 -63 -22 -93 -41 -30 -18 -70 -37 -89 -40 l-34 -7 34 -18 c65 -35 143
-18 193 42 l29 34 -5 -85 c-4 -56 -13 -102 -26 -133 -23 -51 -116 -157 -138
-157 -16 0 -29 43 -20 65 8 21 -17 19 -37 -3 -23 -25 -21 -58 4 -76 21 -14 21
-15 -12 -32 -18 -9 -60 -19 -94 -21 -51 -4 -65 -2 -95 19 -48 32 -63 66 -49
107 20 56 61 65 108 25 37 -31 44 -10 8 24 -34 32 -82 29 -118 -7 -66 -66 -18
-163 95 -193 l46 -12 -30 -31 c-16 -16 -42 -58 -57 -92 l-28 -62 -29 35 c-21
26 -25 39 -17 47 28 28 -4 137 -40 137 -14 0 -10 -62 6 -90 23 -40 19 -50 -23
-50 -43 0 -62 -14 -62 -47 0 -27 36 -51 53 -34 8 8 5 11 -10 11 -25 0 -38 27
-22 46 20 25 60 16 94 -20 37 -40 42 -58 35 -140 -6 -71 -32 -96 -107 -103
-42 -5 -53 -1 -81 22 l-32 27 0 -35 c0 -43 38 -84 86 -93 37 -7 104 21 112 46
3 8 -7 5 -23 -8 -57 -45 -165 -13 -165 49 0 6 10 3 22 -5 25 -18 94 -21 132
-6 42 16 30 1 -17 -20 -23 -11 -34 -20 -24 -20 10 0 27 5 39 11 49 26 63 21
76 -25 6 -24 32 -74 57 -112 48 -71 65 -127 65 -210 0 -24 -2 -44 -4 -44 -3 0
-17 13 -33 29 -17 16 -53 35 -85 45 -42 12 -65 26 -86 52 -29 35 -31 35 -41
16 -6 -11 -11 -41 -11 -66 0 -36 6 -52 31 -81 38 -43 119 -70 180 -60 l40 7
-25 -51 c-53 -104 -130 -161 -218 -161 -62 0 -113 34 -113 75 0 23 5 30 20 30
11 0 19 -6 18 -12 -2 -7 2 -13 7 -13 17 0 11 29 -8 39 -24 13 -62 -12 -62 -40
0 -10 15 -36 34 -56 30 -33 39 -37 94 -41 77 -5 135 20 192 85 62 71 84 138
84 261 1 56 4 102 7 102 15 0 126 -131 152 -178 l27 -50 -37 -7 c-81 -14 -140
-79 -157 -174 -6 -33 -6 -33 17 -18 12 9 50 32 84 52 33 19 73 49 87 65 l25
30 12 -42 c16 -59 17 -164 1 -219 -18 -59 -79 -140 -116 -152 -22 -7 -33 -5
-55 10 -53 40 -30 108 30 86 36 -14 38 1 4 23 -23 15 -27 15 -50 0 -49 -32
-39 -107 18 -134 l28 -14 -36 -39 c-20 -22 -43 -55 -51 -72 l-16 -33 -55 28
c-72 36 -131 37 -199 3 -53 -26 -78 -49 -110 -100 -19 -29 -19 -29 1 -20 11 5
88 12 170 15 83 3 157 9 165 13 13 6 15 -5 16 -65 1 -40 11 -109 23 -153 16
-59 20 -94 15 -132 -3 -29 -8 -53 -9 -53 -2 0 -22 9 -46 20 -58 26 -159 25
-159 -1 0 -18 85 -51 136 -52 61 -2 64 -8 33 -69 -53 -103 -159 -178 -233
-164 -53 10 -96 51 -96 90 0 54 51 85 81 50 10 -13 10 -19 0 -36 -10 -16 -10
-19 1 -16 7 3 14 15 16 27 8 53 -61 71 -97 25 -69 -87 57 -199 173 -154 26 9
26 9 28 -43 1 -28 2 -60 1 -70 0 -9 6 -17 13 -17 6 0 25 -7 40 -15 37 -19 67
-19 104 0 39 20 49 60 22 87 -25 25 -52 17 -51 -14 l0 -23 9 23 c11 26 23 28
40 7 18 -22 2 -55 -36 -71 -31 -13 -39 -13 -67 1 -39 18 -67 62 -67 104 0 24
13 43 60 90 33 33 60 66 60 72 0 7 10 3 23 -9 31 -29 51 -28 66 6 10 22 10 25
0 15 -17 -16 -31 -16 -53 0 -17 13 -17 16 -1 63 9 27 20 76 24 109 l7 60 18
-34 c10 -19 38 -56 63 -82 38 -40 43 -50 29 -55 -25 -10 -52 -72 -60 -137 -3
-32 -13 -72 -21 -88 l-16 -29 35 0 c25 0 45 9 69 30 47 41 60 78 55 150 l-4
60 37 0 c84 0 130 90 74 145 -36 37 -85 28 -85 -14 0 -11 3 -11 13 4 29 39 98
-16 82 -66 -4 -11 -20 -26 -37 -35 -62 -32 -132 5 -193 101 -33 52 -69 134
-62 141 2 3 17 -2 33 -11 58 -30 110 -13 93 32 -13 34 -39 43 -60 22 -11 -11
-32 -19 -48 -19 -28 0 -30 3 -41 57 -7 32 -10 79 -7 105 7 56 27 128 37 128 3
0 14 -18 24 -40 10 -24 52 -71 107 -122 50 -45 98 -96 107 -113 l16 -30 7 25
c34 117 -42 245 -177 301 -30 13 -54 26 -54 30 0 14 85 78 131 98 24 11 54 21
67 21 13 0 20 4 17 10 -4 6 -21 8 -42 4 l-36 -7 20 34 c12 19 29 60 38 93 l17
59 18 -53 c10 -29 32 -66 49 -83 l31 -32 0 58 c0 68 -17 106 -63 141 -28 22
-35 36 -45 88 -14 78 -69 190 -121 250 l-40 45 60 6 c77 7 123 37 145 94 28
72 -5 133 -71 133 -53 0 -84 -34 -65 -71 15 -27 26 -24 25 7 0 33 24 49 59 40
57 -14 54 -105 -6 -147 -71 -51 -172 -31 -253 49 -70 69 -108 155 -113 260
l-5 83 37 -24 c69 -47 187 -59 259 -26 30 14 36 29 10 29 -9 0 -57 19 -107 42
-66 31 -104 43 -138 43 -43 0 -47 2 -42 20 24 82 103 179 154 190 72 16 205
128 253 214 l25 43 11 -35 c13 -39 47 -87 62 -87 28 0 -1 131 -38 172 -11 13
-17 42 -19 105 -1 49 -9 109 -17 136 -8 26 -13 47 -10 47 2 0 25 -18 51 -39
100 -84 224 -121 289 -87 68 35 95 116 56 165 -25 30 -85 38 -118 17 -26 -17
-34 -59 -13 -72 8 -5 9 -2 5 9 -10 27 2 45 34 52 35 8 74 -13 84 -45 10 -31
-13 -79 -46 -95 -70 -37 -157 -9 -274 86 -58 47 -151 147 -144 154 2 2 29 -3
59 -11 165 -43 330 17 364 132 7 21 6 21 -40 -2 -56 -28 -106 -30 -217 -9
-100 19 -164 19 -201 0 -35 -18 -36 -17 -74 60 -25 50 -66 175 -58 175 2 0 27
-13 57 -30 57 -31 97 -38 117 -18 16 16 15 39 -4 67 l-16 22 -19 -20 c-23 -25
-68 -27 -109 -6 -27 14 -30 20 -30 66 0 49 1 51 23 44 57 -18 84 -16 159 14
42 17 82 31 90 31 32 2 -69 42 -116 47 -55 6 -133 -18 -121 -37 3 -5 0 -7 -9
-4 -36 14 45 164 110 205 46 28 51 25 44 -31 -5 -42 -4 -50 10 -50 38 0 53 49
25 86 -23 30 -19 34 40 34 101 0 171 -51 146 -106 -9 -20 -17 -25 -39 -22 -22
2 -27 8 -27 31 1 15 -3 27 -7 27 -20 0 -6 -51 17 -66 23 -15 27 -15 50 0 55
36 17 123 -64 146 -91 25 -174 0 -251 -76 l-46 -44 -38 79 c-36 72 -38 84 -33
136 3 31 8 59 10 61 10 11 144 -74 164 -105 20 -30 24 -31 30 -15 34 87 -29
177 -123 177 -24 0 -44 4 -44 8 0 19 103 118 149 142 68 37 134 35 164 -5 17
-23 19 -31 9 -53 -17 -36 -41 -43 -63 -17 -20 25 -29 28 -29 9 0 -22 34 -47
63 -47 58 0 76 82 28 131 -39 39 -100 40 -173 3 -91 -46 -198 -183 -198 -253
0 -43 -18 -19 -31 42 -27 129 -9 325 32 348 11 5 41 9 67 7 38 -2 49 -8 57
-25 13 -30 21 -29 29 1 16 66 -36 101 -111 74 -28 -10 -43 -12 -43 -5 0 26 86
179 127 226 54 61 88 81 142 81 71 0 144 -88 127 -154 -7 -27 -39 -43 -59 -29
-7 4 -5 0 6 -9 33 -31 77 2 77 59 l0 33 40 -16 c39 -16 122 -16 137 0 4 4 -5
18 -19 32 -30 30 -99 42 -146 26 -27 -9 -32 -7 -50 17 -42 58 -130 77 -188 42
l-31 -19 24 67 c17 46 27 100 32 181 9 130 35 213 97 305 44 66 50 71 72 52
34 -31 107 -57 160 -57 52 0 99 17 135 48 17 15 15 17 -35 28 -29 6 -86 19
-127 28 -40 9 -83 14 -95 10 -21 -6 -21 -6 2 19 37 39 131 84 204 98 118 22
232 -21 298 -112 45 -62 41 -68 -42 -71 l-73 -3 35 -23 c28 -19 44 -22 83 -18
44 5 47 4 47 -19 0 -44 -22 -129 -46 -176 -45 -90 -135 -139 -201 -107 -38 18
-52 61 -32 96 22 40 56 41 73 2 11 -26 14 -29 20 -15 9 25 -20 65 -48 65 -13
0 -35 -9 -50 -21 -20 -16 -26 -29 -26 -59 0 -89 95 -127 193 -77 l47 24 0 -27
c0 -15 8 -35 19 -44 17 -16 19 -15 25 15 4 20 1 43 -8 60 -13 27 -12 35 11 91
15 37 27 92 30 136 l6 73 46 -46 c25 -26 58 -53 73 -61 l27 -14 -31 -45 c-40
-57 -50 -142 -23 -210 15 -41 101 -142 112 -131 2 2 -1 23 -7 45 -8 31 -8 62
1 122 6 44 9 105 7 137 l-4 57 91 1 c137 1 242 34 346 110 l46 33 28 -29 c20
-21 46 -33 98 -45 73 -17 107 -31 119 -49 14 -21 19 22 9 62 -21 76 -100 121
-192 109 -44 -6 -50 5 -16 27 43 29 179 78 189 68 14 -14 -2 -41 -34 -58 -16
-9 -27 -18 -25 -21 8 -7 71 -6 96 2 25 8 28 46 5 65 -13 12 -14 10 -3 -14 15
-33 2 -46 -46 -45 -29 0 -29 1 -8 11 12 6 27 26 33 44 12 36 34 46 149 65 90
15 88 16 95 -50 12 -107 99 -238 196 -295 l32 -18 -11 21 c-7 12 -20 61 -31
111 -23 107 -39 141 -93 198 l-41 42 55 0 c119 0 324 -74 379 -137 34 -39 39
-82 12 -106 -36 -33 -82 -9 -82 41 -1 23 -2 25 -11 9 -14 -25 10 -71 40 -75
62 -9 102 38 81 94 -14 35 -13 35 16 24 35 -14 74 -12 104 5 l25 14 -40 16
c-28 12 -56 16 -95 12 -44 -4 -60 -1 -78 13 l-22 18 32 7 c86 18 159 90 161
159 2 69 -59 115 -112 85 -28 -16 -36 -59 -13 -67 7 -2 10 2 6 12 -8 22 13 46
41 46 25 0 65 -42 65 -69 0 -25 -42 -92 -70 -113 -33 -24 -57 -15 -65 24 -13
55 11 52 26 -4 8 -32 9 -32 4 6 -5 47 -21 68 -36 46 -5 -8 -8 -26 -5 -40 12
-68 14 -65 -30 -68 -26 -2 -73 9 -135 30 -91 31 -99 33 -255 33 -159 0 -161 0
-148 20 8 11 14 34 14 51 0 17 7 37 15 44 8 7 12 16 9 21 -3 5 0 9 5 9 6 0 11
5 11 12 0 6 -8 3 -20 -7 -11 -10 -17 -23 -13 -29 3 -6 -8 2 -26 18 -49 47
-137 35 -129 -17 4 -29 36 -46 48 -27 15 24 12 36 -4 14 -12 -15 -17 -17 -28
-6 -20 20 3 47 44 50 63 5 97 -63 63 -127 -12 -25 -31 -34 -127 -65 -62 -20
-139 -49 -170 -64 -53 -26 -58 -27 -58 -10 0 27 -26 74 -45 82 -51 19 -125
-15 -125 -58 0 -18 30 -49 38 -41 4 3 0 10 -7 14 -22 14 -5 57 28 71 37 15 64
2 81 -39 17 -41 -1 -91 -48 -132 -40 -35 -139 -85 -190 -95 l-33 -7 21 36 c42
70 5 125 -51 77 -22 -18 -23 -21 -6 -30 11 -8 17 -24 17 -50 0 -39 0 -39 -47
-46 -56 -8 -155 6 -207 31 l-37 18 50 23 c28 12 89 59 136 103 47 44 96 83
110 87 38 9 30 21 -23 33 -112 24 -229 -47 -287 -172 l-23 -48 -29 38 c-112
142 -101 309 22 367 61 29 125 -4 125 -64 0 -52 -52 -49 -63 3 -3 12 -4 7 -4
-12 2 -41 33 -58 66 -35 33 24 28 69 -13 110 -36 36 -73 43 -111 22z m-1167
-101 c7 -45 10 -91 6 -101 -6 -17 -8 -16 -20 5 -7 13 -13 42 -14 64 0 30 -3
36 -12 27 -9 -9 -9 -23 -1 -59 10 -42 10 -46 -3 -29 -27 37 -8 176 24 176 4 0
14 -37 20 -83z m534 6 c26 -27 48 -72 48 -95 0 -19 -49 33 -75 79 -27 50 -13
58 27 16z m1838 -149 c39 -45 65 -104 79 -178 6 -31 15 -65 21 -76 20 -37 -8
-20 -60 36 -62 69 -99 138 -105 202 l-5 47 19 -51 c20 -55 51 -107 58 -100 2
2 -4 21 -15 43 -25 48 -43 113 -32 113 4 0 22 -16 40 -36z m-885 16 c3 -5 -1
-10 -9 -10 -9 0 -56 -38 -106 -85 -83 -79 -135 -114 -148 -100 -4 3 26 37 66
75 40 39 69 70 64 70 -10 0 -97 -74 -124 -105 -23 -27 -23 -8 0 30 28 44 80
92 126 115 43 21 120 27 131 10z m1412 -81 c25 -9 26 -11 10 -21 -21 -11 -120
9 -111 23 7 12 67 11 101 -2z m-2220 -21 c51 -13 91 -27 90 -32 -2 -5 -21 -16
-43 -23 -48 -18 -121 -10 -176 18 -50 25 -45 33 7 14 22 -8 49 -14 60 -14 11
0 -6 10 -37 21 -118 41 -48 52 99 16z m1282 -46 c32 -17 82 -85 71 -96 -3 -2
-26 1 -50 9 -25 8 -61 16 -80 19 -19 4 -48 17 -65 31 l-30 24 38 1 c21 0 53
-7 72 -14 19 -8 35 -11 35 -6 0 8 -64 35 -105 43 -11 3 3 5 30 6 31 1 63 -6
84 -17z m-895 -1 c8 -13 -48 -24 -75 -16 -17 6 -19 9 -8 16 18 12 76 11 83 0z
m482 -4 c3 -8 0 -27 -7 -43 l-11 -29 -12 35 c-7 19 -11 38 -9 43 7 12 33 8 39
-6z m-1341 -87 c-3 -5 -21 -9 -38 -9 l-32 1 30 8 c43 11 47 11 40 0z m1035
-114 c-13 -36 -14 -157 0 -136 5 8 10 33 10 55 0 55 18 117 32 109 8 -5 8 -38
3 -108 -5 -56 -8 -120 -8 -143 1 -50 -8 -48 -43 13 -37 64 -43 146 -15 203 24
46 38 51 21 7z m-1026 -51 c-47 -15 -108 -45 -102 -50 2 -2 32 5 67 15 84 26
105 26 91 0 -16 -30 -86 -66 -181 -93 -48 -14 -96 -30 -108 -36 -25 -14 -26
-9 -7 27 40 77 158 152 236 151 l45 -1 -41 -13z m836 -93 c0 -28 -3 -33 -10
-22 -13 20 -13 73 0 65 6 -3 10 -23 10 -43z m-922 -234 c18 -18 15 -23 -18
-23 -16 0 -30 2 -30 6 0 7 22 29 30 29 3 0 11 -5 18 -12z m546 -68 c13 -13 -8
-30 -36 -30 -28 0 -100 32 -91 40 21 20 103 14 127 -10z m-599 -81 c9 -14 8
-14 -58 -44 -53 -23 -57 -23 -47 -6 24 45 89 76 105 50z m163 -151 c7 -7 12
-19 12 -27 0 -11 -3 -11 -14 4 -10 13 -25 18 -61 17 -32 0 -44 3 -34 9 20 13
83 11 97 -3z m-324 -121 c59 -42 124 -112 114 -122 -8 -9 -61 14 -85 37 -13
12 -26 18 -30 15 -9 -9 22 -33 72 -57 l40 -20 -37 0 c-64 0 -112 56 -143 168
-9 30 0 27 69 -21z m379 -277 c21 -23 27 -40 27 -73 -1 -42 -1 -42 -15 -16 -9
16 -40 38 -80 57 -64 31 -83 52 -47 52 10 0 35 -9 57 -20 21 -11 40 -18 42
-16 6 6 -27 28 -64 43 l-38 14 45 -5 c34 -4 52 -12 73 -36z m-268 -12 c-11 -6
-25 -19 -32 -27 -11 -14 -12 -13 -13 5 0 27 8 34 39 34 25 -1 25 -1 6 -12z
m353 -240 c-6 -41 -24 -29 -20 14 4 32 6 38 14 24 5 -9 8 -26 6 -38z m6 -148
c19 -7 17 -9 -19 -25 -88 -38 -124 -45 -158 -31 l-32 13 55 22 c49 19 51 21
18 16 -47 -7 -49 1 -5 14 33 10 102 6 141 -9z m-289 -110 c-21 -8 -45 -3 -45
9 0 4 15 5 32 3 28 -4 30 -6 13 -12z m233 -102 c-4 -30 -33 -33 -83 -9 l-40
20 46 -6 c29 -3 49 -1 53 6 12 19 28 12 24 -11z m-188 -67 c0 -13 -62 -50
-127 -77 -30 -12 -50 -24 -45 -28 15 -9 99 19 143 48 44 30 47 27 19 -19 -25
-41 -75 -65 -132 -65 -47 0 -115 27 -137 53 -12 15 -9 17 35 17 38 0 64 9 119
40 66 37 125 52 125 31z m359 -167 c47 -9 114 -14 149 -12 l64 4 -34 -28 c-51
-43 -119 -61 -202 -56 -39 3 -86 11 -104 19 -32 13 -29 14 51 11 49 -2 93 1
104 7 14 8 0 10 -60 11 -128 0 -209 31 -136 51 40 11 78 10 168 -7z m-270
-173 c11 -7 7 -12 -15 -24 -39 -20 -104 -32 -104 -19 0 13 41 39 71 45 13 2
26 5 29 5 3 1 11 -2 19 -7z m140 -197 c-8 -10 -32 -25 -54 -35 -23 -11 -32
-19 -21 -19 10 0 35 9 55 21 l36 21 -28 -26 c-32 -30 -96 -49 -132 -40 -14 3
-25 9 -25 13 1 9 172 92 178 86 3 -2 -1 -12 -9 -21z m-329 -84 c0 -26 -46 -45
-75 -31 -20 10 -20 10 1 10 11 1 29 10 39 21 23 25 35 25 35 0z m431 -134 c31
-68 21 -106 -13 -48 -22 37 -35 108 -18 97 6 -4 21 -26 31 -49z m-266 -155 c3
-6 2 -11 -4 -11 -16 0 -32 37 -24 56 6 15 8 14 14 -8 4 -15 10 -31 14 -37z
m-300 -142 c4 -17 5 -33 2 -36 -7 -7 -37 52 -37 73 0 27 28 -2 35 -37z m245
-213 c41 -20 82 -36 90 -36 13 0 13 -1 0 -10 -31 -20 -142 -11 -199 15 -30 14
-51 28 -48 31 3 3 18 -1 34 -9 16 -9 47 -18 68 -21 38 -6 38 -5 -12 13 -62 23
-96 45 -85 55 14 14 77 -1 152 -38z m-187 -517 c45 -13 70 -27 81 -44 l16 -25
-37 0 c-21 0 -62 11 -92 25 -37 18 -50 20 -41 10 19 -23 48 -37 105 -51 l50
-12 -43 -1 c-23 -1 -57 5 -75 13 -61 26 -107 98 -91 141 6 14 10 13 34 -10 15
-14 57 -35 93 -46z m258 -155 c-46 -19 -35 -27 14 -9 48 16 58 3 24 -30 -28
-28 -150 -98 -157 -90 -3 2 8 26 24 52 30 49 85 93 113 93 9 -1 1 -7 -18 -16z
m209 -234 c11 -22 20 -54 20 -72 l0 -33 -20 25 c-17 21 -60 119 -60 136 0 17
43 -23 60 -56z m-202 -339 c20 -10 54 -36 74 -56 55 -55 72 -100 69 -175 -1
-25 -1 -25 -20 5 -10 17 -47 55 -82 84 -65 55 -126 127 -116 138 9 8 42 -15
106 -73 30 -27 49 -39 43 -27 -7 11 -37 44 -69 72 -62 55 -63 61 -5 32z m-221
-15 c27 -14 25 -15 -38 -9 -37 3 -80 2 -95 -3 -23 -6 -11 -9 59 -14 48 -4 90
-10 94 -14 17 -17 -31 -26 -144 -26 -67 0 -130 -3 -140 -6 -36 -11 60 65 101
80 48 18 122 14 163 -8z m219 -291 c-5 -13 -13 -15 -34 -10 -39 9 -52 25 -20
25 15 0 30 5 34 11 10 17 28 -6 20 -26z m-222 -164 c53 -13 65 -28 18 -24
l-37 3 33 -10 c46 -15 40 -23 -10 -15 -59 10 -111 32 -103 45 8 12 47 13 99 1z
m227 -216 c-5 -19 -5 -35 -1 -35 5 0 15 27 22 61 9 43 14 55 19 42 22 -54 -12
-139 -67 -174 -41 -25 -47 -23 -34 17 5 16 13 58 19 93 6 35 18 73 28 83 18
20 18 20 21 -15 2 -20 -1 -52 -7 -72z m-121 27 c-7 -3 -19 3 -28 13 -16 15
-15 16 12 4 15 -7 23 -15 16 -17z"/>
<path d="M436 4775 c-25 -19 -9 -19 24 0 14 8 19 14 10 14 -8 0 -24 -6 -34
-14z"/>
<path d="M4302 5888 c-7 -7 -12 -17 -12 -22 0 -6 5 -4 11 4 8 12 10 11 7 -5
-4 -24 -23 -26 -60 -8 -38 18 -68 16 -105 -7 -25 -15 -33 -27 -33 -50 0 -31
30 -56 56 -46 15 6 19 42 6 50 -5 3 -8 -5 -8 -17 1 -26 -22 -29 -37 -6 -15 25
-1 48 38 65 45 19 78 5 113 -46 36 -53 26 -85 -48 -159 -59 -58 -64 -61 -80
-46 -24 22 -51 16 -62 -14 -7 -20 -6 -22 6 -12 13 11 38 6 63 -13 1 -1 -7 -30
-17 -65 -11 -34 -20 -80 -20 -102 0 -47 -10 -49 -35 -7 -10 18 -36 51 -57 74
l-38 41 21 19 c32 29 40 51 50 127 5 39 16 81 24 94 15 23 15 23 -21 23 -29 0
-44 -8 -74 -38 -54 -54 -70 -119 -44 -186 5 -13 -1 -16 -33 -16 -36 0 -78 -20
-95 -44 -17 -24 -8 -77 17 -101 36 -37 85 -28 85 14 0 11 -3 11 -13 -4 -17
-23 -62 -14 -78 16 -17 33 -3 68 36 86 31 15 37 15 80 -1 33 -13 57 -32 85
-70 39 -51 95 -164 86 -173 -2 -2 -18 3 -35 11 -80 42 -132 -9 -66 -64 14 -11
18 -10 31 8 21 31 72 30 83 0 25 -67 21 -164 -9 -242 l-11 -30 -28 50 c-16 27
-66 82 -110 122 -45 41 -89 88 -98 105 -15 29 -17 30 -24 12 -15 -40 -9 -110
15 -160 28 -61 81 -110 159 -145 l59 -27 -38 -38 c-42 -41 -125 -85 -161 -85
-13 0 -23 -5 -23 -11 0 -8 13 -9 40 -5 l39 6 -21 -36 c-12 -20 -29 -64 -39
-98 -10 -33 -18 -52 -18 -41 -2 29 -45 117 -68 138 -20 17 -21 17 -27 -7 -14
-55 16 -131 68 -171 27 -21 34 -34 39 -75 9 -78 60 -183 137 -282 l22 -28 -45
0 c-58 0 -124 -36 -149 -80 -24 -45 -19 -107 12 -132 26 -21 79 -23 104 -5 21
15 19 68 -3 75 -10 3 -12 0 -8 -12 19 -50 -56 -78 -87 -34 -47 67 28 158 129
158 51 0 97 -22 150 -71 82 -76 124 -176 125 -297 l0 -53 -26 20 c-32 25 -114
51 -161 51 -48 0 -120 -20 -134 -36 -9 -11 -7 -14 11 -14 13 0 61 -19 108 -41
59 -29 101 -43 136 -45 57 -3 59 -9 25 -76 -34 -67 -79 -107 -164 -148 -93
-45 -191 -132 -222 -200 -21 -45 -33 -51 -33 -15 0 15 -14 41 -35 63 l-34 37
-1 -48 c0 -52 18 -104 43 -126 12 -10 17 -30 17 -70 0 -55 11 -137 26 -195 l7
-29 -53 42 c-113 89 -220 121 -293 86 -72 -34 -95 -127 -43 -172 32 -27 81
-30 114 -7 23 16 30 58 11 70 -7 4 -9 0 -5 -14 7 -22 -24 -52 -55 -52 -30 0
-69 39 -69 70 0 48 38 82 98 88 80 7 161 -37 281 -154 52 -51 93 -95 91 -98
-3 -2 -32 2 -65 10 -156 36 -299 -7 -351 -107 -22 -44 -17 -48 33 -23 55 28
105 30 216 9 100 -19 164 -19 201 0 33 17 32 18 68 -50 25 -48 58 -142 58
-166 0 -16 -6 -15 -56 12 -56 29 -79 34 -108 23 -21 -8 -20 -53 2 -82 l18 -23
12 25 c14 31 52 35 107 12 32 -14 35 -19 35 -55 0 -22 -3 -46 -6 -55 -5 -14
-9 -14 -31 1 -28 19 -66 13 -182 -28 l-65 -23 50 -23 c60 -28 127 -29 177 -4
34 17 37 17 37 2 0 -23 -45 -110 -73 -141 -28 -32 -68 -60 -84 -60 -17 0 -17
72 -1 88 9 9 7 12 -9 12 -41 0 -53 -45 -28 -102 6 -16 1 -18 -44 -18 -86 0
-156 43 -149 91 7 49 74 50 72 1 0 -12 3 -19 8 -16 4 3 8 13 8 23 0 46 -75 55
-97 12 -30 -62 51 -131 152 -131 65 0 139 35 187 88 l38 42 14 -23 c8 -12 27
-48 42 -81 22 -47 25 -67 21 -107 -3 -27 -8 -53 -11 -58 -6 -9 -101 34 -131
59 -10 8 -26 28 -36 44 l-18 30 -11 -30 c-33 -85 54 -188 142 -169 l30 7 -18
-32 c-44 -75 -157 -152 -226 -154 -66 -1 -113 68 -72 108 21 22 40 20 58 -6
21 -30 33 -15 12 17 -33 50 -106 21 -106 -43 0 -28 17 -62 39 -79 27 -21 107
-15 159 11 85 43 202 192 202 259 0 9 4 17 9 17 26 0 41 -259 20 -348 -14 -59
-31 -72 -90 -72 -40 0 -50 4 -67 27 l-20 28 -7 -28 c-17 -67 36 -102 113 -75
42 16 43 15 36 -6 -15 -49 -89 -179 -126 -221 -49 -56 -84 -75 -139 -75 -36 0
-48 6 -85 44 -38 37 -44 49 -44 84 0 32 5 44 21 53 15 8 24 8 32 0 6 -6 16
-11 21 -11 6 1 1 9 -12 20 -39 32 -82 2 -82 -57 0 -18 -2 -33 -4 -33 -2 0 -21
7 -42 16 -24 10 -54 14 -82 11 -62 -7 -70 -20 -31 -47 37 -27 116 -38 148 -21
19 10 25 8 47 -19 52 -61 128 -78 189 -40 l33 20 -25 -62 c-20 -48 -27 -90
-33 -183 -8 -132 -25 -190 -86 -291 -54 -91 -53 -90 -111 -54 -87 54 -186 52
-263 -5 l-34 -25 27 0 c14 0 72 -12 127 -26 56 -14 110 -24 121 -21 50 13 -9
-42 -86 -81 -55 -27 -150 -45 -203 -38 -95 13 -183 72 -223 148 l-19 37 78 3
77 3 -38 24 c-32 19 -47 22 -84 17 l-46 -6 6 59 c14 128 78 230 159 252 82 22
147 -33 116 -98 -22 -45 -78 -39 -78 9 0 10 -4 16 -10 13 -15 -9 -12 -42 6
-59 38 -39 114 4 114 64 0 42 -15 67 -50 85 -48 25 -130 14 -172 -23 -17 -14
-18 -13 -18 9 0 34 -30 76 -41 58 -14 -22 -10 -62 6 -87 13 -17 13 -26 5 -43
-27 -50 -51 -138 -51 -192 l-1 -58 -52 49 c-28 27 -62 54 -75 61 -21 11 -21
14 -7 29 26 30 56 106 56 146 0 21 -5 56 -12 78 -12 41 -75 120 -110 139 -17
9 -18 8 -9 -10 13 -24 14 -123 1 -211 -5 -36 -5 -81 -1 -101 l8 -36 -91 0
c-138 0 -263 -40 -359 -116 l-38 -30 -15 22 c-20 28 -57 46 -124 60 -30 7 -69
20 -87 31 l-33 19 0 -30 c0 -87 86 -155 185 -147 41 3 52 1 48 -8 -9 -23 -186
-100 -204 -88 -19 12 -7 36 29 57 l37 22 -54 3 c-39 2 -59 -1 -70 -12 -13 -14
-13 -19 8 -47 12 -17 21 -33 18 -35 -9 -9 -111 -33 -167 -40 l-56 -6 -11 64
c-6 35 -23 90 -38 121 -28 56 -115 150 -164 176 -22 12 -23 12 -16 -5 4 -11
15 -46 23 -79 38 -153 43 -166 87 -220 l45 -55 -47 0 c-61 0 -194 32 -265 63
-80 36 -138 91 -138 132 0 33 25 65 52 65 24 0 51 -36 43 -59 -4 -12 -2 -21 4
-21 17 0 13 57 -5 74 -22 23 -70 20 -95 -5 -17 -17 -20 -28 -14 -65 l6 -43
-31 10 c-33 12 -95 5 -105 -12 -11 -17 64 -40 124 -37 39 2 63 -2 79 -14 l24
-16 -34 -7 c-88 -19 -155 -82 -165 -154 -5 -35 -2 -44 25 -71 35 -34 69 -39
102 -12 17 13 21 24 16 40 -4 12 -11 22 -16 22 -5 0 -7 -7 -4 -15 16 -42 -51
-60 -86 -23 -36 39 -20 101 42 153 l33 28 6 -42 c3 -23 12 -49 21 -57 14 -14
16 -12 22 17 4 19 1 43 -8 60 -12 24 -12 28 1 33 30 12 93 5 137 -14 100 -42
312 -65 421 -44 l38 7 -16 -24 c-10 -13 -17 -38 -17 -55 0 -18 -8 -38 -20 -49
-11 -10 -20 -25 -20 -33 0 -12 5 -10 23 6 23 22 24 22 41 3 32 -36 94 -34 118
3 15 22 8 30 -8 8 -37 -54 -124 -10 -124 63 0 52 27 75 120 102 47 13 122 42
167 63 80 37 83 38 83 17 0 -12 9 -37 20 -54 17 -28 25 -33 60 -33 48 0 80 27
80 69 0 28 -24 49 -35 32 -3 -5 2 -11 10 -15 23 -8 18 -32 -11 -55 -36 -28
-58 -26 -83 5 -59 75 15 174 172 232 82 31 91 29 67 -10 -11 -18 -20 -48 -20
-65 0 -28 4 -33 23 -33 13 0 32 6 43 14 19 14 19 15 1 46 -30 49 -17 77 39 86
59 9 138 -2 194 -27 l45 -21 -50 -25 c-27 -14 -87 -61 -133 -104 -48 -45 -97
-82 -115 -88 l-32 -8 30 -13 c54 -22 126 -16 185 16 60 32 93 69 131 145 l26
51 35 -48 c76 -106 90 -215 39 -295 -31 -50 -89 -84 -126 -75 -53 14 -86 67
-61 102 12 15 18 17 33 8 10 -6 21 -22 24 -35 7 -24 7 -24 8 3 2 46 -57 70
-81 34 -17 -24 -8 -77 16 -101 48 -48 102 -45 162 8 51 44 74 98 74 175 l0 64
32 -33 c18 -18 58 -44 88 -58 72 -34 197 -35 277 -4 l53 21 10 -37 c11 -43 63
-97 103 -107 l29 -7 -32 62 c-17 34 -42 71 -55 83 l-25 21 73 76 c73 77 124
160 156 253 l18 53 22 -68 c39 -118 122 -210 233 -262 l52 -24 -3 -60 c-2 -51
14 -166 26 -180 2 -3 14 6 28 19 49 46 53 136 10 197 -15 21 -14 22 24 33 79
21 131 86 131 163 0 54 -31 93 -84 102 -71 14 -136 -26 -136 -84 0 -39 24 -61
66 -61 27 0 37 5 43 22 11 30 0 48 -12 20 -21 -46 -77 -33 -77 18 0 61 94 83
144 34 35 -35 35 -82 0 -124 -56 -66 -126 -77 -213 -34 -57 29 -156 118 -146
134 10 15 71 23 94 11 26 -14 28 0 3 22 -20 19 -87 23 -97 7 -12 -20 -26 -9
-44 32 -40 91 -41 88 32 88 112 0 221 72 289 191 14 24 29 55 33 68 l8 25 -30
-25 c-33 -28 -74 -44 -206 -84 -64 -19 -99 -36 -127 -61 l-39 -36 -7 26 c-17
69 23 212 82 293 19 27 47 67 63 90 l28 43 23 -61 c16 -45 19 -64 11 -72 -9
-9 -17 -8 -31 1 -25 15 -32 3 -17 -29 17 -33 52 -36 72 -6 16 24 17 25 48 9
47 -24 147 -28 186 -8 51 27 71 52 71 91 0 33 -20 55 -49 55 -16 0 -51 -38
-51 -55 0 -22 14 -18 25 7 13 30 41 34 55 9 15 -29 -2 -56 -50 -81 -77 -39
-182 -15 -227 53 -30 44 -29 47 12 47 40 0 72 26 99 78 l16 31 -72 -30 c-39
-16 -77 -34 -85 -40 -22 -19 -16 35 12 117 14 39 31 106 38 148 l12 75 28 -34
c15 -19 52 -50 81 -69 30 -19 60 -44 69 -56 l15 -22 7 22 c9 29 -3 96 -27 148
-27 56 -70 86 -128 88 -41 2 -46 5 -51 30 -14 64 -11 74 19 68 20 -4 34 0 46
11 18 19 15 42 -13 85 l-16 24 -5 -34 c-4 -28 -9 -35 -28 -35 -19 0 -28 12
-52 73 -16 40 -46 97 -65 128 l-36 56 17 45 18 46 19 -44 c32 -76 96 -129 156
-129 38 0 88 41 96 81 8 36 -16 79 -44 79 -34 0 -67 -59 -42 -75 5 -3 11 7 13
22 6 52 57 39 58 -14 0 -27 -54 -73 -86 -73 -53 0 -111 48 -139 112 -18 44
-20 119 -3 136 19 19 59 15 65 -8 7 -26 23 -15 23 15 0 31 -25 45 -62 35 -25
-8 -28 -6 -28 14 0 13 -3 43 -6 68 l-6 45 39 5 c21 3 62 20 91 38 74 45 111
54 161 36 47 -16 48 -13 21 32 -26 42 -108 82 -170 82 -65 0 -126 -31 -147
-75 l-17 -35 -36 67 c-19 38 -43 79 -52 93 -20 31 -31 76 -23 98 4 14 15 16
52 13 53 -4 103 18 128 55 l15 24 -50 0 c-31 0 -66 -8 -90 -20 -47 -24 -50
-16 -12 36 37 51 97 103 138 120 138 58 287 -90 198 -195 -27 -32 -60 -39 -95
-21 -26 14 -24 55 3 74 l22 16 -22 0 c-14 0 -27 -9 -34 -25 -24 -52 55 -113
108 -84 58 30 81 116 49 179 -18 36 -70 76 -119 93 -33 11 -35 14 -23 31 8 11
33 22 58 26 l44 7 -39 17 c-65 29 -133 -4 -107 -52 9 -16 3 -22 -45 -42 -98
-40 -180 -142 -199 -245 l-7 -40 -24 30 c-25 31 -56 105 -68 161 -7 30 -5 32
31 39 21 3 59 20 86 37 26 16 66 36 89 42 l41 13 -42 16 c-23 9 -53 17 -68 17
-39 0 -108 -36 -123 -65 -24 -45 -33 -29 -26 45 11 119 54 208 134 275 27 23
35 25 48 14 10 -8 14 -23 12 -41 -5 -33 11 -37 35 -10 23 26 21 58 -5 76 -22
15 -21 16 18 32 119 50 234 10 234 -82 0 -39 -29 -74 -62 -74 -12 0 -35 12
-50 27 -22 21 -28 23 -28 10 0 -26 41 -57 76 -57 47 0 84 35 91 87 5 40 3 46
-34 82 -26 27 -55 44 -86 52 l-47 11 32 36 c17 20 43 62 57 93 l26 56 27 -38
c15 -21 23 -41 18 -44 -18 -11 -11 -81 11 -109 11 -14 25 -26 30 -26 14 0 10
52 -6 80 -26 45 -20 60 24 60 45 0 66 19 57 54 -7 28 -31 40 -54 26 -14 -8
-12 -9 11 -10 25 0 28 -3 25 -27 -6 -58 -94 -29 -123 41 -9 20 -11 54 -8 98
l6 68 44 21 c54 26 119 21 144 -10 19 -23 29 -18 29 14 0 32 -35 72 -75 85
-45 15 -96 -1 -125 -37 -24 -30 -21 -32 -45 32 -10 28 -30 67 -44 89 -62 93
-63 95 -69 184 l-5 87 36 -32 c19 -17 61 -38 91 -47 40 -12 63 -26 83 -51 28
-34 28 -34 40 -12 7 12 12 42 13 66 0 38 -5 49 -39 81 -45 43 -114 65 -173 55
l-38 -7 11 28 c55 145 205 225 305 163 34 -20 52 -58 39 -78 -10 -17 -33 -13
-44 7 -9 15 -10 15 -11 -4 0 -26 24 -38 50 -24 71 38 -11 140 -114 140 -98 -1
-181 -63 -233 -175 -25 -54 -28 -70 -28 -171 l0 -112 -24 20 c-36 27 -83 84
-125 150 -20 31 -36 59 -36 61 0 3 18 7 40 11 71 11 149 104 150 178 l0 26
-67 -43 c-83 -53 -133 -93 -133 -108 0 -6 15 3 33 20 25 25 93 66 150 91 13 6
-13 -52 -39 -85 -25 -33 -71 -63 -96 -63 -7 0 2 8 20 16 17 9 32 21 32 26 0 5
-10 4 -21 -3 -12 -6 -34 -15 -49 -19 -32 -9 -43 6 -60 80 -23 104 -3 208 53
282 55 72 109 84 144 32 31 -48 -25 -102 -65 -62 -9 9 -12 9 -12 0 0 -6 11
-19 25 -28 23 -15 27 -15 49 -1 46 30 34 120 -18 133 -14 3 -26 8 -26 11 0 3
16 23 35 46 19 22 40 53 47 69 15 34 17 34 62 7 50 -29 135 -36 190 -15 46 18
115 77 136 117 11 20 10 21 -6 14 -11 -5 -86 -12 -169 -15 -82 -3 -158 -10
-167 -14 -16 -7 -18 -1 -18 61 0 38 -9 105 -21 149 -19 72 -22 174 -5 191 2 2
15 -2 28 -11 45 -29 178 -33 178 -5 0 17 -87 50 -143 54 -29 2 -53 4 -55 5 -1
0 11 26 27 58 77 152 220 215 303 132 33 -33 37 -79 10 -103 -36 -32 -80 -9
-67 34 5 14 4 19 -4 15 -17 -11 -13 -63 5 -70 48 -19 104 18 104 68 0 79 -109
139 -194 106 -25 -9 -26 -8 -26 33 0 23 -4 48 -9 56 -6 9 -4 22 4 35 11 16 18
66 10 66 -1 0 -6 -5 -13 -12z m-241 -157 c-6 -10 -13 -48 -17 -84 -4 -41 -15
-79 -28 -99 l-21 -33 -3 37 c-2 21 1 53 7 73 5 19 5 35 1 35 -11 0 -30 -64
-30 -100 0 -20 -2 -22 -10 -10 -29 44 7 146 63 180 40 25 50 25 38 1z m84
-142 c11 -16 2 -17 -25 -2 -24 12 -24 13 -3 13 12 0 25 -5 28 -11z m149 -157
c32 -12 35 -17 21 -24 -21 -12 -107 -1 -132 17 -15 11 -12 12 24 5 24 -4 40
-3 37 1 -3 5 -16 9 -29 9 -13 0 -27 5 -30 11 -9 13 55 2 109 -19z m-219 -193
c5 -5 0 -9 -16 -9 -14 0 -30 -5 -36 -11 -14 -14 -27 5 -19 28 5 11 14 13 34 8
15 -3 31 -11 37 -16z m-118 -157 c89 -85 123 -126 123 -147 0 -12 -41 17 -101
73 -34 31 -57 47 -51 36 6 -12 37 -45 69 -74 43 -39 51 -51 33 -45 -45 13
-114 70 -142 116 -23 37 -50 139 -37 139 2 0 50 -44 106 -98z m503 -92 c-40
-33 -109 -60 -154 -60 -17 0 -49 9 -71 19 l-40 18 67 -5 c36 -2 79 -1 95 4 22
6 9 9 -60 14 -86 7 -107 13 -93 28 7 7 276 20 286 14 3 -2 -11 -17 -30 -32z
m-619 -398 c18 -53 4 -59 -29 -13 -24 33 -32 54 -32 85 l1 41 24 -40 c14 -22
30 -55 36 -73z m465 -301 c57 -26 84 -64 84 -118 l0 -45 -26 31 c-16 19 -42
35 -67 41 -64 16 -105 37 -117 60 -10 19 -8 20 28 20 21 0 61 -11 87 -25 27
-13 51 -23 53 -21 9 9 -66 51 -112 62 l-51 12 40 1 c22 0 58 -8 81 -18z m165
-420 c38 -38 37 -53 -2 -34 -30 15 -96 15 -144 -1 -11 -4 3 5 30 19 28 13 42
25 32 25 -10 0 -32 -7 -50 -16 l-32 -15 28 25 c41 37 99 36 138 -3z m-295
-140 c23 -10 45 -24 49 -31 4 -7 -4 -6 -22 3 -16 9 -47 18 -68 21 -38 6 -37 5
15 -15 30 -12 64 -28 74 -35 18 -12 18 -14 2 -20 -25 -10 -68 2 -161 43 -52
23 -80 40 -72 45 24 15 141 8 183 -11z m183 -291 c0 -10 -6 -8 -19 9 -11 13
-20 35 -20 50 1 25 1 25 20 -9 11 -19 19 -42 19 -50z m-309 -125 c0 -13 -4
-27 -10 -30 -5 -3 -7 0 -4 9 3 8 1 24 -5 35 -10 17 -9 20 4 15 8 -4 15 -17 15
-29z m-276 -93 c19 -38 30 -92 18 -92 -6 0 -20 19 -31 43 -35 71 -22 118 13
49z m496 -142 c12 -8 11 -10 -7 -10 -13 0 -32 -9 -43 -20 -25 -25 -30 -25 -30
0 0 30 51 49 80 30z m-241 -49 c0 -7 -169 -91 -183 -91 -19 0 30 43 69 61 26
12 33 19 20 19 -11 0 -36 -10 -55 -21 -26 -16 -31 -17 -21 -5 20 24 50 39 91
46 38 6 80 2 79 -9z m89 -223 c-6 -18 -93 -52 -113 -44 -27 10 -1 33 48 45 60
13 69 13 65 -1z m-306 -129 c80 -17 76 -25 -12 -21 -44 2 -86 -1 -97 -7 -14
-8 -2 -10 54 -11 76 0 173 -17 173 -29 0 -13 -49 -31 -84 -31 -19 0 -71 7
-117 16 -46 9 -112 14 -146 12 -69 -4 -70 4 -6 43 62 38 141 48 235 28z m503
-128 c22 -10 46 -25 54 -34 12 -15 9 -17 -34 -17 -37 0 -64 -9 -120 -40 -69
-38 -125 -52 -125 -30 0 13 95 67 142 82 21 6 35 14 33 18 -8 14 -89 -10 -137
-40 -53 -32 -57 -30 -29 16 37 61 136 82 216 45z m-340 -175 c45 -19 45 -26 0
-19 -25 4 -41 1 -54 -11 -17 -16 -19 -16 -23 1 -12 44 16 54 77 29z m205 -124
c0 -5 -13 -7 -30 -4 -16 2 -30 6 -30 8 0 2 14 4 30 4 17 0 30 -4 30 -8z m-146
-53 c6 -5 -5 -14 -25 -22 -19 -8 -41 -17 -49 -21 -8 -3 3 -4 25 -1 27 3 35 1
25 -5 -28 -18 -95 -21 -140 -7 l-45 14 40 18 c95 42 143 49 169 24z m-162
-209 c-2 -22 -8 -37 -13 -34 -10 6 -12 57 -2 67 14 15 18 5 15 -33z m126 -208
c57 -25 86 -52 55 -52 -10 0 -36 9 -58 20 -21 11 -40 18 -42 16 -6 -6 32 -34
62 -44 l30 -10 -31 -1 c-18 -1 -43 8 -59 21 -31 25 -58 80 -49 102 5 13 9 12
25 -8 10 -13 40 -33 67 -44z m250 -9 c-2 -11 -14 -19 -33 -21 l-29 -4 24 21
c31 25 42 26 38 4z m68 -184 c30 -29 64 -98 64 -132 l0 -26 -37 24 c-87 56
-109 75 -126 104 -18 31 -18 31 4 31 12 0 37 -11 55 -25 18 -14 36 -25 40 -25
17 0 -34 44 -71 62 l-40 19 43 -5 c27 -2 54 -13 68 -27z m-247 -232 c27 3 32
2 21 -6 -30 -21 -110 -11 -110 14 0 12 4 11 26 0 15 -8 42 -11 63 -8z m179
-119 c-24 -37 -62 -54 -89 -41 -23 10 -22 12 31 37 67 32 77 32 58 4z m-586
-109 c23 -12 23 -29 1 -31 -49 -4 -123 15 -123 32 0 21 84 19 122 -1z m488
-60 c0 -4 -7 -12 -15 -19 -12 -10 -18 -10 -30 0 -22 19 -18 25 15 25 17 0 30
-3 30 -6z m-1131 -244 c16 -62 13 -94 -9 -144 -23 -51 -34 -51 -20 0 13 44 13
139 0 139 -5 0 -10 -21 -10 -46 0 -51 -18 -134 -30 -134 -15 0 -20 65 -10 125
5 33 10 85 10 115 l1 55 28 -34 c16 -18 34 -53 40 -76z m1231 31 c-47 -78
-141 -137 -225 -143 l-50 -3 51 19 c105 39 130 66 29 31 -32 -11 -69 -20 -82
-20 -20 0 -22 3 -13 20 16 30 86 66 182 94 48 13 95 29 105 35 27 14 28 6 3
-33z m-1056 -32 c3 -9 6 -25 6 -37 0 -27 -16 -11 -25 26 -8 29 8 39 19 11z
m-1366 -279 c48 -55 90 -140 97 -198 5 -37 4 -39 -6 -17 -43 96 -61 132 -64
128 -2 -2 7 -31 20 -64 14 -32 25 -68 25 -78 0 -17 -4 -16 -31 10 -42 40 -75
107 -90 184 -6 36 -16 73 -21 83 -16 31 25 3 70 -48z m452 0 c75 -12 129 -40
130 -66 0 -6 -45 1 -105 16 -51 13 -16 -12 40 -28 48 -14 49 -15 21 -22 -41
-11 -115 22 -143 64 -28 42 -31 66 -5 53 9 -6 37 -13 62 -17z m1810 21 c0 -2
-15 -6 -34 -8 -19 -2 -32 0 -30 4 5 8 64 12 64 4z m-1380 -100 c-11 -11 -30 1
-30 20 0 9 5 25 12 37 11 21 12 21 19 -13 4 -19 4 -39 -1 -44z m284 29 c-9
-14 -42 -48 -73 -75 -31 -27 -51 -50 -44 -50 7 0 42 28 78 61 69 66 83 66 36
3 -35 -49 -86 -93 -128 -111 -38 -15 -123 -18 -123 -3 0 6 6 10 14 10 8 0 51
35 96 78 102 97 182 146 144 87z m243 -11 c36 -10 16 -24 -33 -24 -44 0 -60
14 -26 23 26 7 35 7 59 1z m440 -24 c58 -26 52 -34 -12 -14 -27 8 -53 13 -58
11 -5 -1 16 -11 47 -20 31 -10 56 -22 56 -28 0 -16 -82 -10 -150 11 -36 11
-76 20 -89 20 -20 0 -22 3 -13 13 41 40 137 43 219 7z m-2274 -44 c15 -4 27
-11 27 -18 0 -7 -18 -9 -55 -5 -67 7 -90 18 -55 28 25 7 30 6 83 -5z m810 -23
c-13 -8 -23 -24 -23 -35 0 -17 -3 -18 -15 -8 -18 15 -20 46 -2 53 6 3 23 6 37
6 l25 0 -22 -16z m2048 -167 l8 -51 -3 63 c-2 61 -2 62 12 36 19 -36 11 -117
-14 -145 -18 -20 -18 -20 -30 38 -14 66 -17 126 -7 137 11 10 25 -22 34 -78z
m-2801 44 c4 -28 0 -41 -10 -35 -5 3 -10 20 -10 38 0 31 16 28 20 -3z m2222
-7 c22 -26 60 -103 50 -103 -11 0 -57 50 -71 77 -21 42 -8 59 21 26z"/>
<path d="M4180 1215 c-14 -8 -20 -14 -15 -14 6 0 21 6 35 14 14 8 21 14 15 14
-5 0 -21 -6 -35 -14z"/>
<path d="M2127 173 c-4 -3 -7 -13 -7 -22 0 -12 3 -11 13 4 9 11 19 15 27 10 9
-5 11 -4 6 3 -8 13 -29 16 -39 5z"/>
</g>
</svg>
