<?xml version="1.0" standalone="no"?>
<!DOCTYPE svg PUBLIC "-//W3C//DTD SVG 20010904//EN"
 "http://www.w3.org/TR/2001/REC-SVG-20010904/DTD/svg10.dtd">
<svg version="1.0" xmlns="http://www.w3.org/2000/svg"
 width="626.000000pt" height="882.000000pt" viewBox="0 0 626.000000 882.000000"
 preserveAspectRatio="xMidYMid meet">

<g transform="translate(0.000000,882.000000) scale(0.100000,-0.100000)"
fill="#000000" stroke="none">
<path d="M1688 8750 c-47 -14 -98 -61 -139 -129 -57 -95 -63 -102 -179 -182
-170 -117 -197 -129 -296 -129 -72 0 -94 4 -150 30 -37 17 -63 34 -59 40 3 5
12 10 19 10 18 0 94 67 101 90 4 14 15 20 35 20 44 0 80 60 45 74 -29 11 -57
-11 -88 -69 -52 -96 -111 -123 -193 -89 l-39 16 38 19 c61 32 88 91 67 153 -9
29 -19 38 -50 47 -33 10 -43 9 -65 -5 -28 -19 -31 -34 -12 -61 21 -27 67 -13
67 20 0 20 -5 25 -22 24 -17 -1 -19 -2 -5 -6 21 -6 22 -29 1 -37 -36 -14 -49
35 -15 54 43 23 91 -17 91 -76 0 -72 -45 -111 -152 -130 l-37 -6 6 51 c5 41 3
51 -9 51 -22 0 -58 -43 -58 -70 0 -20 -5 -17 -29 22 -30 47 -51 67 -51 49 0
-6 14 -32 30 -58 34 -53 37 -71 15 -79 -25 -10 -17 -27 10 -20 21 5 25 2 34
-31 11 -44 21 -123 15 -123 -1 0 -20 11 -40 25 -45 30 -83 32 -118 4 -47 -37
-30 -119 24 -119 33 0 52 25 43 58 -6 25 -38 30 -47 7 -3 -8 -1 -15 3 -15 5 0
11 6 14 13 3 8 7 6 12 -5 4 -10 5 -25 1 -33 -13 -34 -66 -3 -66 39 0 58 85 76
140 29 30 -25 32 -30 27 -75 -7 -54 -61 -194 -103 -266 l-28 -47 -8 32 c-9 33
-55 75 -95 88 -13 3 -23 11 -23 18 0 8 3 8 12 -1 28 -28 61 43 42 92 -14 37
-54 4 -54 -46 0 -21 -2 -20 -19 9 -12 19 -31 34 -50 38 -54 12 -66 -15 -32
-72 16 -26 30 -33 75 -43 66 -13 117 -46 130 -82 6 -18 5 -55 -4 -111 -17
-109 -10 -172 26 -244 16 -32 31 -62 33 -66 2 -5 -11 -2 -27 7 -33 17 -60 20
-86 10 -24 -9 -19 -28 14 -64 29 -31 33 -32 80 -26 47 6 50 5 56 -19 9 -36 -2
-108 -22 -148 -9 -17 -41 -59 -70 -91 -95 -108 -127 -205 -100 -306 8 -30 13
-56 12 -57 -1 -1 -23 12 -49 30 -45 31 -46 33 -47 84 0 29 -5 64 -12 78 -10
22 -96 85 -116 85 -5 0 -5 -27 -1 -61 9 -77 41 -119 132 -174 88 -53 108 -74
184 -185 119 -174 128 -193 128 -290 0 -76 -4 -93 -33 -155 l-34 -70 -14 35
c-18 42 -49 77 -87 96 -20 11 -27 22 -27 44 0 23 -7 33 -30 45 -27 14 -31 14
-36 0 -13 -34 5 -61 61 -90 57 -28 97 -70 110 -113 7 -25 -20 -112 -35 -112
-4 0 -13 13 -20 29 -16 41 -41 61 -83 68 -74 12 -117 -16 -117 -76 0 -44 18
-64 52 -59 18 2 24 10 26 34 2 21 -2 33 -12 37 -22 9 -46 -2 -46 -20 0 -12 3
-13 15 -3 16 14 35 5 35 -16 0 -20 -27 -29 -45 -14 -38 32 6 110 62 110 35 0
88 -31 104 -62 13 -24 40 -130 35 -135 -2 -2 -16 1 -32 7 -30 12 -74 6 -74 -9
0 -5 14 -21 30 -34 23 -20 37 -25 63 -20 30 5 33 2 46 -34 7 -21 27 -59 43
-86 36 -57 68 -154 68 -208 l0 -40 -27 20 c-73 52 -153 26 -153 -49 0 -30 6
-43 23 -54 45 -30 92 8 67 54 -13 24 -23 25 -41 4 -12 -15 -11 -16 9 -10 19 6
22 4 22 -18 0 -21 -5 -26 -25 -26 -44 0 -61 63 -25 95 46 41 150 -8 150 -71 0
-40 -47 -171 -93 -259 -35 -66 -43 -76 -45 -55 -5 32 -48 78 -90 96 -17 8 -32
20 -32 27 0 8 3 7 10 -3 7 -12 12 -12 29 4 30 28 27 106 -5 106 -17 0 -34 -31
-34 -62 -1 -22 -1 -22 -17 4 -18 29 -56 47 -87 40 -15 -3 -17 -10 -12 -35 7
-39 48 -77 84 -78 23 -2 24 -2 5 -6 -26 -5 -76 -60 -67 -74 9 -15 61 -10 78 7
9 8 16 26 16 40 0 31 15 30 62 -2 48 -34 54 -57 38 -159 -20 -126 -10 -178 58
-307 2 -4 -15 0 -37 9 -33 13 -46 14 -66 5 -33 -15 -32 -27 5 -64 28 -28 36
-30 80 -26 54 5 60 0 60 -57 0 -64 -30 -128 -95 -203 -72 -83 -91 -118 -106
-195 -9 -44 -8 -65 4 -108 9 -29 15 -55 13 -57 -2 -2 -25 11 -50 29 -46 33
-46 33 -46 90 0 67 -26 106 -91 140 l-39 19 0 -50 c0 -83 39 -134 155 -203 76
-45 85 -55 188 -208 94 -141 113 -194 104 -289 -4 -32 -17 -83 -31 -113 -24
-55 -46 -81 -46 -54 0 25 -57 93 -88 106 -25 11 -30 18 -30 43 1 33 -22 58
-55 58 -15 0 -18 -6 -15 -32 3 -29 11 -37 63 -65 102 -54 129 -106 97 -189
l-19 -48 -22 43 c-51 99 -201 91 -201 -10 0 -32 19 -69 36 -69 39 0 59 61 26
78 -22 12 -42 5 -42 -15 0 -12 3 -13 15 -3 16 14 35 5 35 -16 0 -20 -27 -29
-45 -14 -34 28 -11 84 40 98 74 21 135 -33 153 -136 10 -55 8 -58 -31 -43 -27
11 -67 4 -67 -11 0 -5 11 -20 25 -34 22 -22 31 -25 65 -19 28 5 40 3 40 -5 0
-7 25 -62 55 -124 42 -84 57 -127 63 -177 l8 -66 -34 24 c-47 31 -115 32 -136
1 -37 -52 -5 -127 47 -114 30 7 39 28 27 61 -11 28 -22 31 -39 11 -8 -10 -9
-16 -1 -21 5 -3 10 -1 10 4 0 6 5 11 10 11 6 0 10 -12 10 -26 0 -22 -4 -25
-26 -22 -34 4 -49 27 -40 61 19 79 166 43 166 -41 0 -41 -40 -153 -90 -252
-43 -85 -43 -85 -52 -54 -9 37 -70 94 -98 94 -11 0 -20 4 -20 10 0 5 7 7 16 3
22 -8 44 22 44 58 0 33 -9 59 -20 59 -17 0 -40 -32 -40 -56 l0 -26 -26 31
c-19 24 -34 31 -60 31 -30 0 -34 -3 -34 -26 0 -32 50 -84 82 -84 21 0 20 -2
-9 -20 -63 -38 -66 -89 -4 -75 34 7 56 37 48 66 -7 26 12 24 54 -4 56 -38 65
-64 51 -146 -21 -124 -16 -177 23 -260 28 -58 32 -72 18 -65 -27 12 -106 11
-110 -2 -2 -6 8 -26 23 -44 26 -30 31 -32 80 -28 60 5 64 1 64 -62 0 -59 -26
-119 -79 -180 -72 -82 -100 -127 -117 -188 -16 -54 -13 -91 12 -181 6 -21 4
-21 -43 13 -51 36 -51 36 -55 101 -4 72 -19 95 -80 126 -21 10 -40 19 -43 19
-3 0 -5 -21 -5 -47 0 -77 42 -128 176 -214 51 -32 75 -58 139 -152 43 -61 89
-133 102 -160 47 -89 40 -223 -18 -316 l-21 -34 -28 49 c-17 31 -42 57 -64 69
-28 15 -36 26 -36 47 0 27 -31 58 -57 58 -19 0 -16 -54 5 -72 9 -8 40 -27 68
-42 34 -18 59 -41 73 -66 26 -46 26 -57 2 -110 l-19 -43 -16 31 c-34 66 -83
89 -150 71 -41 -11 -56 -33 -56 -82 0 -42 21 -62 55 -53 22 6 26 11 23 39 -2
27 -7 32 -28 32 -17 0 -26 -6 -28 -20 -3 -19 -2 -19 12 -1 17 21 36 14 36 -15
0 -24 -45 -27 -54 -3 -31 80 72 128 144 67 34 -28 47 -54 59 -120 l8 -42 -47
6 c-59 7 -70 -8 -35 -43 22 -22 33 -25 61 -21 30 5 36 2 50 -25 26 -50 28 -23
4 52 -20 62 -21 75 -11 117 7 27 30 77 51 113 22 36 44 80 51 98 20 57 103 81
149 44 17 -14 23 -30 24 -63 1 -41 -1 -44 -28 -47 -37 -5 -51 10 -37 37 13 24
31 28 31 6 0 -8 5 -15 11 -15 6 0 8 7 5 16 -3 9 -6 18 -6 20 0 2 -11 4 -25 4
-18 0 -26 -7 -31 -25 -9 -35 1 -53 32 -61 22 -6 32 -2 51 20 24 29 24 46 0 94
-12 25 -55 52 -82 52 -9 0 -29 -7 -45 -15 l-30 -16 0 70 c0 47 -7 87 -22 126
-21 56 -21 57 -3 92 32 59 74 84 161 94 115 15 155 42 170 117 l7 32 -44 0
c-51 -1 -112 -21 -140 -46 -10 -9 -24 -34 -31 -55 -9 -30 -18 -41 -44 -49 -34
-12 -104 -86 -104 -110 0 -17 -125 159 -159 224 -18 34 -27 69 -29 116 -4 59
-1 70 18 88 45 42 143 33 169 -16 27 -50 -1 -122 -47 -122 -29 0 -58 37 -45
58 14 24 39 22 35 -3 -3 -16 -1 -17 8 -8 17 16 5 43 -18 43 -25 0 -42 -19 -42
-48 0 -49 67 -69 111 -33 29 23 32 85 6 124 -23 36 -86 54 -138 40 -21 -6 -39
-8 -39 -6 0 18 50 93 89 134 41 42 53 49 87 49 74 0 127 -54 109 -110 -9 -29
-54 -45 -73 -26 -8 8 -12 22 -9 30 8 20 37 21 37 1 0 -8 5 -15 11 -15 6 0 9 8
7 17 -2 13 -13 18 -33 18 -24 0 -31 -5 -33 -23 -4 -29 14 -52 42 -52 70 0 91
84 35 139 -29 30 -49 36 -97 32 -25 -2 -26 4 -11 46 8 25 17 32 49 37 42 7 90
53 90 87 0 29 -49 28 -91 -2 l-26 -19 -6 39 c-3 22 -19 67 -36 100 -38 76 -40
123 -6 156 33 34 77 33 105 -2 12 -15 20 -38 18 -52 -2 -21 -8 -26 -33 -26
-34 0 -48 30 -18 38 14 4 13 5 -5 6 -30 1 -39 -25 -17 -49 23 -26 50 -25 76 1
42 42 -6 119 -73 119 -39 0 -68 -20 -94 -66 -10 -17 -13 -13 -19 27 -8 57 11
101 58 129 32 20 48 24 130 35 36 5 59 16 88 42 49 44 49 60 3 65 -49 6 -95
-19 -119 -64 -12 -22 -27 -38 -38 -38 -27 0 -94 -37 -112 -62 -36 -49 -5 45
56 172 68 141 84 162 152 196 97 50 186 39 227 -28 27 -45 26 -84 -4 -103 -32
-21 -66 -5 -66 30 0 30 16 41 37 23 14 -11 16 -11 11 2 -8 26 -47 24 -59 -3
-23 -51 36 -96 85 -64 34 23 41 62 18 106 -46 89 -142 106 -256 47 -36 -19
-66 -33 -66 -31 0 2 7 34 16 72 10 43 13 86 9 116 -5 44 -3 50 24 77 34 35 62
40 54 10 -6 -22 45 -80 71 -80 18 0 21 32 6 60 -9 17 -5 22 24 34 40 16 71 58
62 82 -8 22 -98 14 -126 -11 -19 -17 -19 -16 -14 16 4 26 0 41 -17 63 l-23 29
-13 -29 c-19 -45 -16 -91 7 -107 19 -13 18 -15 -21 -40 -36 -24 -40 -25 -46
-9 -12 36 -63 144 -81 170 -10 15 -29 60 -42 101 -21 66 -22 79 -11 120 7 25
32 80 57 122 24 42 44 81 44 88 0 6 11 23 25 36 52 53 155 18 155 -53 0 -34
-16 -52 -46 -52 -26 0 -39 27 -23 46 15 18 29 18 29 -1 0 -8 5 -15 11 -15 23
0 3 35 -23 38 -48 6 -51 -71 -2 -81 68 -13 90 78 34 135 -27 26 -36 30 -68 25
-20 -3 -45 -8 -55 -12 -15 -6 -17 0 -17 59 0 41 -7 85 -21 121 -23 61 -20 81
18 125 35 42 69 57 144 65 90 10 128 30 150 79 27 60 25 66 -22 66 -92 0 -162
-44 -175 -110 -4 -19 -15 -30 -40 -39 -35 -13 -104 -85 -104 -109 0 -8 -10 0
-23 19 -13 19 -45 64 -70 100 -68 97 -97 164 -97 227 0 67 11 87 56 102 48 16
99 5 124 -27 23 -29 26 -81 7 -107 -29 -39 -116 -8 -91 32 6 9 19 19 29 20 13
3 16 -1 10 -18 -5 -15 -4 -20 4 -16 17 11 13 43 -5 50 -24 9 -56 -23 -52 -53
2 -15 14 -31 29 -40 61 -34 122 27 100 100 -17 57 -54 81 -116 77 -27 -3 -58
-8 -68 -12 -27 -13 29 84 81 139 39 42 46 45 93 45 43 0 55 -5 80 -29 46 -46
34 -111 -20 -111 -28 0 -47 22 -35 41 9 15 34 10 34 -7 0 -8 4 -12 10 -9 16
10 12 23 -11 35 -26 14 -49 -3 -49 -36 0 -35 38 -51 76 -33 23 11 30 22 32 51
2 21 -2 47 -8 58 -16 30 -70 60 -107 60 -37 0 -38 1 -21 47 10 28 17 33 46 33
42 0 92 46 92 84 0 33 -30 35 -78 6 -18 -11 -34 -20 -36 -20 -2 0 -6 17 -10
38 -3 21 -19 64 -36 95 -37 71 -39 119 -5 152 49 50 130 17 123 -50 -3 -26 -7
-30 -33 -30 -20 0 -31 5 -33 18 -2 10 3 17 12 17 9 0 16 4 16 10 0 15 -45 -6
-48 -23 -5 -25 40 -49 71 -38 34 13 42 43 22 85 -18 37 -62 62 -93 51 -34 -10
-72 -45 -72 -66 0 -35 -18 -20 -25 21 -16 95 38 147 170 165 61 8 97 26 124
61 32 41 27 54 -22 54 -51 0 -79 -18 -113 -72 -14 -22 -28 -37 -31 -34 -9 9
-76 -23 -107 -52 l-29 -27 7 30 c11 48 118 267 146 298 14 16 45 41 70 55 37
22 57 27 113 27 66 0 70 -1 103 -37 56 -62 43 -134 -23 -126 -21 2 -29 9 -31
27 -5 32 12 48 33 31 12 -10 15 -10 15 3 0 12 -19 27 -36 27 -2 0 -11 -11 -20
-25 -15 -23 -15 -27 0 -49 46 -70 134 -13 106 68 -38 108 -163 133 -284 55
-25 -16 -46 -27 -46 -24 0 2 7 34 16 72 10 42 13 86 10 114 -6 41 -3 51 19 77
13 16 34 32 45 35 16 4 19 1 14 -17 -6 -26 26 -71 56 -79 27 -7 35 14 22 53
-10 27 -9 30 10 30 25 0 78 55 78 81 0 16 -7 19 -42 19 -24 0 -56 -7 -72 -15
-37 -19 -36 -20 -30 13 4 21 0 36 -18 57 l-24 28 -13 -30 c-19 -47 -11 -95 19
-110 17 -9 20 -13 8 -13 -9 0 -31 -12 -48 -26 l-31 -27 -6 23 c-5 20 -70 153
-92 190 -5 8 -19 45 -31 83 -27 82 -23 117 27 207 20 36 47 86 60 112 27 55
69 83 114 73 63 -14 94 -104 44 -127 -21 -9 -29 -9 -41 3 -17 17 -9 49 12 49
8 0 14 -8 14 -17 0 -13 3 -14 12 -5 10 9 8 16 -5 29 -21 22 -50 8 -55 -26 -8
-52 64 -72 94 -26 13 20 14 30 4 59 -21 64 -79 91 -144 66 l-26 -10 0 63 c0
37 -9 89 -22 129 l-22 68 30 37 c49 60 73 73 157 82 103 12 145 41 162 114 7
27 7 27 -46 27 -92 0 -169 -56 -169 -124 0 -9 -8 -16 -20 -16 -23 0 -86 -53
-110 -92 l-16 -27 -58 81 c-95 131 -126 198 -126 273 0 57 3 66 26 84 19 15
41 21 74 21 42 0 52 -4 74 -31 47 -56 26 -129 -37 -129 -29 0 -51 29 -41 54 3
9 15 16 26 16 15 0 18 -5 13 -21 -5 -15 -4 -19 4 -15 16 10 13 43 -4 50 -23 9
-45 -4 -51 -30 -9 -34 1 -53 33 -65 34 -13 65 0 89 36 14 22 15 32 6 64 -22
71 -91 104 -161 75 -18 -8 -35 -14 -37 -14 -10 0 38 81 75 128 53 67 101 84
157 56 50 -24 72 -63 58 -101 -7 -21 -17 -29 -40 -31 -31 -3 -52 18 -38 39 9
16 34 10 34 -8 0 -13 3 -14 12 -5 10 9 8 16 -5 29 -24 24 -52 6 -52 -33 0 -26
4 -29 36 -32 75 -6 96 73 35 134 -29 29 -41 34 -79 34 l-45 0 15 39 c13 34 20
39 57 44 47 7 86 44 86 83 0 20 -5 24 -29 24 -15 0 -40 -9 -54 -20 -14 -11
-27 -20 -30 -20 -2 0 -7 17 -11 39 -3 21 -19 64 -36 96 -38 72 -40 122 -5 155
33 31 82 31 107 0 37 -45 0 -117 -39 -77 -17 17 -17 19 1 33 16 11 17 14 4 14
-42 0 -45 -55 -3 -66 58 -14 86 21 61 79 -25 62 -83 75 -135 31 -17 -14 -31
-32 -31 -40 0 -22 -17 -16 -24 9 -12 44 -6 76 20 107 35 41 66 56 147 68 68
11 118 37 137 72 18 33 11 40 -38 40 -41 0 -52 -5 -79 -32 -16 -18 -33 -41
-36 -50 -4 -10 -13 -18 -22 -18 -23 0 -76 -28 -109 -59 l-28 -26 7 35 c3 19
35 94 71 167 55 113 70 136 106 161 56 38 100 52 161 52 44 0 53 -4 88 -39 28
-28 39 -47 39 -69 0 -52 -51 -82 -80 -47 -18 22 -8 50 18 49 25 -1 24 19 -1
24 -9 2 -23 -8 -33 -22 -15 -24 -15 -28 0 -51 30 -46 97 -28 112 30 12 48 -58
132 -119 142 -47 7 -117 -11 -169 -43 -22 -14 -41 -24 -43 -22 -2 2 3 32 12
68 9 38 13 85 9 114 -4 40 -1 55 16 80 21 30 21 31 1 13 -23 -20 -27 -17 -37
26 -5 23 -3 29 19 37 43 17 107 11 155 -14 206 -105 220 -117 220 -175 0 -44
-26 -76 -70 -86 -39 -8 -62 9 -58 44 2 20 9 26 28 26 16 0 25 -6 25 -15 0 -8
-6 -14 -12 -13 -7 2 -13 -2 -13 -8 0 -6 8 -9 18 -7 11 2 17 12 17 28 0 21 -5
26 -32 28 -27 3 -35 -1 -44 -22 -10 -20 -9 -30 5 -51 26 -39 78 -35 123 10 36
36 38 50 18 120 -6 19 -1 20 67 21 43 1 89 8 112 18 55 23 81 20 121 -15 48
-43 56 -61 71 -157 14 -95 38 -131 100 -150 43 -13 49 -3 41 69 -10 82 -58
139 -116 139 -12 0 -21 10 -26 28 -7 30 -82 112 -102 112 -26 0 -10 16 75 76
110 77 175 110 235 119 64 10 94 0 117 -38 38 -61 17 -137 -43 -156 -64 -21
-122 24 -98 76 9 19 18 24 38 21 18 -2 29 -10 31 -22 3 -15 0 -18 -18 -13 -14
3 -20 1 -17 -6 7 -23 42 -13 45 12 4 25 -19 51 -45 51 -23 0 -53 -39 -53 -68
0 -87 145 -97 180 -13 12 31 10 90 -5 125 -7 16 -1 15 44 -9 29 -16 72 -48 97
-70 40 -37 44 -46 44 -87 0 -35 -6 -54 -25 -77 -31 -36 -54 -45 -89 -32 -20 8
-26 17 -26 41 0 34 24 50 43 31 9 -10 7 -16 -8 -28 l-20 -15 20 4 c30 5 33 54
4 63 -31 10 -64 -25 -55 -58 16 -65 84 -74 140 -18 23 24 29 39 30 75 1 25 3
46 6 45 3 0 20 -6 39 -13 28 -10 34 -18 37 -45 5 -45 20 -68 55 -87 59 -30 78
6 35 69 l-24 36 40 6 c22 4 69 22 104 41 77 41 103 42 143 8 41 -34 43 -83 5
-113 -15 -12 -34 -21 -43 -21 -37 0 -54 46 -26 70 12 10 16 9 21 -4 3 -9 10
-16 15 -16 6 0 5 9 -1 20 -13 25 -32 25 -53 2 -22 -24 -21 -45 1 -65 46 -41
126 1 126 66 0 39 -31 81 -67 93 -30 10 -1 24 50 24 30 0 50 -7 72 -26 42 -35
51 -55 62 -132 10 -70 37 -124 75 -148 31 -21 42 -12 42 36 1 45 -30 90 -79
116 -18 9 -29 23 -29 35 0 26 -16 57 -49 93 l-26 29 40 -8 c22 -4 98 -37 170
-73 123 -63 132 -70 162 -121 55 -93 56 -176 1 -230 -56 -55 -128 -46 -128 15
0 33 37 51 59 30 14 -15 14 -18 1 -26 -13 -8 -12 -10 3 -10 21 0 23 33 3 50
-23 18 -59 8 -75 -22 -14 -25 -14 -29 5 -55 28 -37 75 -42 119 -12 47 33 65
68 65 131 0 52 -34 147 -59 162 -28 18 -6 23 42 10 28 -8 84 -15 123 -15 62 0
75 -3 98 -24 31 -28 34 -55 7 -55 -33 0 -51 -11 -67 -42 -16 -30 -12 -50 9
-43 51 15 67 15 67 -2 1 -34 68 -92 90 -78 15 9 12 82 -5 115 l-16 30 34 0
c35 0 81 26 72 40 -3 5 -23 14 -44 20 -47 12 -91 -1 -91 -27 0 -13 -6 -8 -19
13 -11 18 -24 35 -30 38 -16 10 -13 26 4 26 8 0 58 22 112 50 206 104 253 111
355 55 34 -20 87 -47 117 -61 30 -14 60 -33 67 -42 21 -29 25 -72 9 -102 -16
-30 -70 -55 -99 -44 -20 8 -32 52 -18 66 15 15 46 5 50 -16 3 -14 0 -17 -12
-13 -9 4 -16 2 -16 -3 0 -15 37 -12 43 4 10 24 -16 48 -48 44 -25 -2 -30 -8
-33 -34 -7 -77 87 -86 146 -14 13 15 11 78 -3 113 -7 16 -3 17 41 12 32 -4 68
0 104 10 99 29 107 29 150 1 51 -33 67 -66 78 -158 6 -41 15 -85 21 -97 15
-28 69 -61 99 -61 20 0 22 5 22 48 -1 85 -54 162 -114 162 -8 0 -24 20 -34 43
-13 28 -36 56 -65 77 l-46 33 37 25 c197 136 251 162 330 162 112 0 127 -185
17 -206 -47 -9 -85 16 -85 55 0 16 7 34 15 41 19 16 49 9 53 -14 3 -15 0 -18
-16 -14 -15 4 -19 2 -15 -8 7 -18 27 -18 43 1 16 20 6 43 -26 57 -24 11 -29
10 -50 -15 -31 -36 -30 -62 1 -92 39 -40 128 -26 155 25 15 27 15 102 1 128
-17 31 -1 27 65 -17 91 -61 116 -91 116 -143 2 -80 -66 -138 -119 -102 -32 20
-29 67 5 72 27 4 30 -22 5 -37 -16 -9 -16 -10 4 -11 30 0 42 39 17 57 -22 16
-26 16 -48 0 -26 -19 -24 -67 4 -89 60 -49 150 15 150 107 0 19 2 35 4 35 2 0
20 -7 40 -15 27 -12 36 -21 36 -40 0 -13 5 -35 11 -49 13 -27 73 -61 89 -51
16 10 12 45 -10 80 l-20 33 47 11 c27 7 72 25 100 42 29 16 62 29 73 29 37 0
77 -28 89 -62 10 -28 9 -36 -7 -58 -25 -33 -66 -48 -86 -30 -22 17 -20 47 3
60 16 8 21 6 26 -11 4 -11 9 -18 12 -16 10 11 -9 47 -26 47 -25 0 -41 -20 -41
-50 0 -34 17 -50 53 -50 34 0 87 48 87 80 0 36 -27 77 -61 90 -28 12 -30 15
-13 21 32 13 83 10 114 -6 37 -19 65 -74 75 -145 9 -69 25 -100 70 -137 l35
-29 -25 -24 c-47 -45 -53 -114 -11 -142 24 -17 66 -8 82 17 15 23 15 27 0 51
-10 14 -24 24 -33 22 -25 -5 -26 -25 -1 -24 26 1 36 -27 18 -49 -29 -35 -80
-5 -80 47 0 22 11 41 39 69 35 36 43 39 92 39 55 0 129 -28 176 -67 38 -31
163 -289 163 -336 0 -6 -12 1 -27 15 -32 30 -85 58 -108 58 -9 0 -18 8 -22 18
-3 9 -20 32 -36 50 -27 27 -38 32 -79 32 -54 0 -60 -12 -28 -52 26 -33 72 -54
140 -63 112 -15 171 -76 155 -161 -6 -33 -25 -48 -25 -20 0 8 -14 26 -31 40
-52 44 -110 31 -135 -31 -8 -19 -12 -43 -9 -54 11 -35 86 -37 99 -2 8 19 -10
43 -32 43 -13 0 -12 -3 4 -14 18 -14 18 -16 1 -33 -39 -40 -76 32 -39 77 43
53 132 10 132 -64 0 -18 -16 -63 -35 -100 -19 -37 -35 -81 -35 -97 0 -34 -4
-35 -37 -9 -14 11 -39 20 -54 20 -24 0 -29 -4 -29 -24 0 -39 39 -76 86 -83 35
-4 42 -10 52 -37 17 -46 17 -46 -29 -46 -79 0 -143 -105 -93 -154 18 -19 65
-21 82 -4 20 20 14 56 -9 63 -28 9 -59 -19 -41 -37 9 -9 12 -8 12 5 0 18 25
24 34 8 21 -34 -38 -55 -68 -25 -57 56 43 152 129 124 36 -12 102 -85 136
-152 22 -43 23 -43 -24 -23 -20 8 -42 13 -49 11 -7 -3 -25 -7 -40 -10 -82 -18
-102 -145 -29 -176 32 -13 78 0 87 25 15 39 -17 82 -51 69 -17 -7 -20 -40 -4
-50 8 -4 9 0 4 15 -5 17 -2 21 14 21 24 0 37 -35 21 -55 -7 -8 -25 -15 -40
-15 -60 0 -80 75 -34 129 22 27 32 31 74 31 71 0 100 -26 100 -93 0 -82 -16
-120 -102 -248 l-81 -120 -17 28 c-24 40 -87 93 -110 93 -12 0 -20 7 -20 16 0
68 -77 124 -169 124 -53 0 -53 0 -46 -27 17 -71 58 -102 153 -113 37 -5 79
-13 93 -18 28 -11 99 -86 99 -105 0 -7 -9 -38 -20 -70 -12 -35 -20 -82 -20
-123 0 -59 -2 -65 -17 -58 -69 30 -131 5 -153 -62 -10 -29 -9 -39 4 -59 19
-29 66 -34 86 -10 15 18 5 64 -16 72 -23 8 -52 -23 -36 -39 9 -9 12 -8 12 5 0
9 6 17 14 17 21 0 29 -32 12 -49 -12 -12 -20 -12 -41 -3 -50 23 -19 113 44
127 45 10 87 -18 114 -73 13 -26 40 -76 60 -112 50 -91 55 -129 23 -212 -14
-38 -22 -68 -19 -68 3 0 -1 -8 -10 -17 -17 -20 -81 -150 -90 -184 l-6 -22 -31
27 c-17 14 -39 26 -48 26 -12 0 -9 4 8 13 30 15 38 63 19 110 l-13 30 -24 -28
c-17 -20 -23 -37 -20 -57 5 -32 1 -34 -26 -13 -11 9 -41 15 -68 15 -42 0 -48
-3 -48 -21 0 -26 52 -79 78 -79 18 0 18 -3 9 -40 -13 -49 -7 -56 32 -36 36 19
54 49 46 76 -10 30 13 24 51 -14 31 -31 33 -37 28 -82 -4 -30 0 -76 10 -117 9
-38 16 -70 16 -72 0 -3 -21 8 -46 24 -94 60 -191 62 -246 4 -52 -54 -58 -118
-15 -148 30 -21 44 -19 72 10 30 29 31 39 5 65 -21 21 -50 17 -50 -7 0 -12 3
-13 15 -3 19 16 35 4 35 -25 0 -18 -7 -26 -27 -31 -37 -10 -57 7 -61 49 -3 30
3 43 32 74 33 37 36 38 103 38 56 0 76 -5 113 -27 25 -14 56 -39 70 -55 28
-31 135 -250 146 -298 l7 -30 -29 26 c-36 33 -67 49 -93 49 -11 0 -28 14 -41
35 -33 53 -66 75 -116 75 -50 0 -56 -12 -23 -54 29 -37 63 -52 144 -65 110
-17 163 -72 150 -156 -7 -52 -16 -57 -32 -15 -7 18 -25 36 -46 46 -31 15 -40
15 -68 4 -35 -15 -64 -69 -54 -101 9 -26 50 -42 74 -29 20 10 34 37 26 50 -7
12 -45 19 -45 9 0 -5 7 -9 16 -9 9 0 14 -7 12 -17 -2 -13 -13 -18 -33 -18 -26
0 -30 4 -33 32 -7 67 74 98 123 48 34 -33 33 -82 -5 -148 -16 -28 -32 -71 -36
-94 -4 -24 -8 -43 -10 -43 -2 0 -18 9 -36 20 -48 29 -78 27 -78 -6 0 -38 50
-84 92 -84 29 0 36 -5 46 -33 16 -45 16 -47 -13 -47 -38 0 -90 -25 -109 -51
-9 -13 -16 -40 -16 -61 0 -48 36 -77 78 -62 34 12 43 57 14 73 -26 14 -63 -11
-44 -30 10 -11 12 -10 12 4 0 18 25 24 34 8 12 -19 -7 -41 -35 -41 -54 0 -66
65 -20 111 24 24 38 29 76 29 25 0 57 -7 71 -16 24 -16 128 -164 120 -172 -2
-2 -13 1 -24 7 -12 6 -41 11 -65 11 -55 0 -92 -27 -108 -79 -22 -73 39 -134
100 -100 15 9 27 25 29 40 4 30 -28 62 -52 53 -18 -7 -22 -39 -5 -50 8 -4 9 1
4 16 -6 17 -3 21 10 18 28 -5 41 -33 26 -52 -19 -23 -78 -21 -91 3 -32 61 15
141 85 141 42 0 90 -22 99 -45 3 -9 6 -40 6 -68 0 -61 -30 -132 -94 -221 -24
-34 -55 -79 -70 -100 -14 -21 -26 -32 -26 -24 0 24 -69 96 -104 109 -26 9 -36
21 -45 49 -19 64 -80 100 -167 100 -51 0 -55 -10 -24 -69 23 -47 63 -66 150
-76 76 -9 108 -23 143 -65 38 -44 41 -64 18 -125 -14 -36 -21 -80 -21 -121 0
-59 -2 -65 -17 -59 -49 19 -89 17 -117 -6 -36 -32 -50 -92 -27 -119 26 -30 76
-31 86 0 11 35 -4 62 -33 58 -26 -3 -46 -38 -23 -38 6 0 11 7 11 15 0 20 17
19 28 -2 13 -25 4 -43 -22 -43 -48 0 -62 57 -25 104 29 36 99 37 134 1 14 -13
25 -30 25 -36 0 -7 20 -46 44 -88 25 -42 50 -97 57 -123 10 -42 9 -56 -12
-120 -12 -40 -28 -80 -35 -88 -20 -25 -84 -163 -84 -182 0 -22 -13 -23 -29 -4
-6 8 -25 19 -42 26 l-30 13 23 11 c28 14 34 47 18 100 l-12 41 -25 -29 c-19
-23 -24 -37 -20 -62 l6 -33 -32 20 c-39 23 -105 26 -113 4 -9 -23 23 -65 62
-81 29 -12 33 -17 24 -34 -15 -28 -12 -60 6 -60 27 0 76 57 69 80 -10 30 21
25 55 -9 27 -26 28 -33 23 -82 -3 -35 1 -77 11 -118 9 -34 16 -64 16 -66 0 -2
-30 12 -66 31 -115 60 -210 42 -257 -49 -23 -45 -17 -80 18 -103 50 -33 112
15 85 65 -13 25 -50 25 -58 1 -5 -13 -3 -13 11 -2 21 18 37 7 37 -23 0 -35
-34 -51 -66 -30 -51 33 -13 131 62 155 62 21 151 -5 220 -63 32 -27 149 -259
159 -317 7 -35 7 -35 -10 -12 -19 26 -85 62 -114 62 -11 0 -22 9 -26 19 -3 11
-19 34 -35 50 -24 27 -35 31 -79 31 -63 0 -66 -14 -12 -63 29 -26 52 -37 88
-42 82 -11 98 -15 130 -35 46 -27 66 -72 58 -126 -6 -41 -25 -63 -25 -29 0 29
-50 65 -90 65 -66 0 -112 -78 -71 -119 28 -28 57 -26 77 4 19 29 11 45 -19 44
-18 -1 -19 -2 -4 -6 30 -8 16 -38 -18 -38 -25 0 -31 5 -33 26 -2 14 6 37 18
52 27 34 68 35 104 2 36 -33 34 -80 -4 -152 -17 -31 -33 -74 -36 -95 -7 -42
-11 -44 -40 -24 -19 13 -45 20 -71 17 -21 -2 -15 -38 13 -70 17 -21 38 -33 64
-37 32 -5 41 -12 49 -37 15 -41 14 -50 -4 -43 -27 10 -76 -6 -106 -36 -54 -54
-32 -138 37 -138 28 0 46 23 42 52 -2 18 -9 23 -33 23 -20 0 -31 -5 -33 -17
-2 -10 1 -18 7 -18 6 0 11 7 11 15 0 17 9 19 29 6 23 -14 -5 -54 -32 -45 -95
28 -39 144 69 144 32 0 45 -8 85 -49 40 -42 89 -116 89 -135 0 -3 -12 -1 -26
4 -92 35 -188 -34 -169 -121 12 -54 84 -79 118 -41 32 35 12 88 -30 80 -19 -3
-32 -48 -13 -48 6 0 10 8 8 18 -4 22 21 22 35 0 9 -13 7 -22 -7 -37 -23 -25
-44 -26 -74 -5 -26 18 -30 78 -7 111 19 27 76 46 114 38 51 -11 71 -39 71
-100 0 -69 -20 -121 -84 -215 -27 -41 -61 -92 -75 -113 -15 -23 -27 -33 -30
-25 -10 31 -65 88 -100 104 -30 13 -41 25 -50 54 -6 20 -20 45 -30 54 -28 25
-89 45 -140 46 l-43 0 6 -32 c15 -75 55 -102 170 -117 86 -10 129 -35 160 -93
18 -34 18 -36 -3 -96 -13 -39 -21 -87 -21 -128 0 -41 -4 -63 -10 -59 -5 3 -10
1 -10 -4 0 -6 4 -11 10 -11 5 0 23 -28 40 -62 16 -35 43 -88 59 -118 17 -30
33 -72 37 -93 6 -35 5 -37 -20 -37 -14 0 -26 4 -26 9 0 5 -12 5 -28 -1 -23 -9
-43 -7 -102 11 -89 27 -275 120 -243 120 29 1 101 65 105 93 2 12 10 23 18 25
13 4 13 3 0 -6 -13 -10 -12 -14 9 -31 26 -22 62 -26 92 -9 20 10 20 11 3 30
-9 10 -30 19 -46 19 l-30 0 30 25 c32 27 49 72 33 88 -6 6 -5 15 5 25 22 21
14 56 -14 60 -23 4 -52 -13 -52 -29 0 -4 10 -17 22 -29 17 -15 18 -20 6 -20
-30 0 -67 -40 -76 -83 -9 -39 -10 -40 -11 -10 -1 21 -9 38 -27 52 -38 30 -54
27 -54 -9 0 -34 31 -70 60 -70 26 0 25 -16 -2 -57 -34 -49 -65 -58 -145 -43
-118 23 -171 18 -256 -22 l-75 -36 15 38 c18 44 11 90 -13 90 -9 0 -29 -14
-46 -30 -28 -29 -30 -35 -24 -79 6 -45 5 -49 -16 -55 -71 -19 -152 10 -235 85
-118 104 -221 138 -325 106 -27 -8 -48 -13 -48 -11 0 2 14 23 31 47 29 40 33
42 95 48 49 4 70 11 90 30 23 21 64 88 64 105 0 10 -102 -7 -131 -22 -32 -16
-77 -69 -132 -154 -35 -54 -60 -77 -147 -138 -167 -116 -210 -135 -305 -135
-71 -1 -89 3 -150 32 l-70 33 47 24 c44 22 88 69 88 93 0 6 13 11 28 11 32 0
62 27 62 54 0 13 -7 17 -32 14 -28 -3 -37 -11 -68 -68 -29 -52 -46 -70 -81
-88 -43 -21 -47 -22 -92 -6 -26 9 -47 19 -47 24 0 4 14 13 31 20 81 34 95 172
20 198 -22 8 -40 8 -62 0 -26 -9 -30 -15 -27 -42 2 -25 8 -32 29 -34 14 -2 31
3 38 11 15 18 4 47 -18 47 -13 0 -13 -2 -2 -9 17 -11 7 -41 -14 -41 -21 0 -30
27 -15 45 17 20 63 19 83 -2 55 -62 8 -158 -89 -182 -65 -17 -88 -15 -79 7 22
50 12 88 -19 76 -24 -9 -45 -55 -39 -86 4 -23 1 -30 -23 -39 -16 -7 -34 -13
-39 -14 -6 -2 -33 -17 -60 -34 -57 -36 -161 -71 -211 -71 l-33 0 24 46 c26 49
25 84 -2 115 -31 36 -95 27 -115 -15 -14 -33 3 -56 43 -56 31 0 42 11 33 34
-9 24 -26 19 -19 -5 6 -17 3 -20 -16 -17 -49 7 -30 68 21 68 54 0 76 -60 45
-121 -22 -42 -57 -53 -120 -38 -56 13 -202 75 -255 107 -32 20 -33 22 -11 22
29 0 101 70 101 99 0 11 4 21 10 21 5 0 7 -6 4 -14 -6 -17 32 -46 61 -46 12 0
30 6 40 14 16 12 17 16 6 30 -7 9 -28 16 -45 16 l-31 0 33 26 c25 20 32 33 32
60 0 29 -3 34 -24 34 -38 0 -86 -46 -87 -83 l0 -32 -12 33 c-7 19 -25 41 -40
50 -24 15 -29 15 -37 2 -14 -22 -12 -35 11 -64 12 -15 30 -26 45 -26 30 0 30
-8 1 -51 -38 -57 -63 -63 -175 -45 -89 15 -102 15 -157 1 -33 -9 -80 -28 -104
-42 -39 -23 -43 -23 -37 -7 19 45 23 71 15 92 -11 29 -21 28 -59 -5 -30 -25
-32 -30 -28 -80 l5 -53 -34 -6 c-36 -7 -110 8 -152 31 -14 8 -55 40 -91 71
-105 92 -203 122 -302 91 -27 -8 -48 -13 -48 -10 0 2 13 24 30 47 28 42 32 44
88 48 33 2 71 12 86 22 27 17 75 101 64 111 -3 3 -29 3 -57 -1 -77 -10 -113
-42 -200 -179 -32 -52 -55 -72 -167 -147 -162 -110 -189 -121 -285 -121 -64
-1 -85 4 -145 32 l-69 33 36 18 c36 19 99 82 99 100 0 6 13 10 29 10 20 0 35
8 45 22 24 33 20 48 -12 48 -32 0 -51 -17 -77 -70 -43 -88 -106 -121 -174 -94
-44 17 -51 28 -25 38 35 14 6 14 -31 1 -22 -8 -52 -14 -66 -15 -25 0 -26 1
-21 50 4 41 2 50 -11 50 -28 0 -59 -51 -53 -88 4 -28 1 -34 -19 -42 -28 -11
-42 -30 -22 -30 8 0 34 9 58 20 75 33 113 27 246 -40 65 -34 126 -70 135 -81
25 -29 23 -94 -2 -119 -25 -25 -68 -36 -89 -23 -22 14 -27 61 -7 69 17 6 46
-11 46 -27 0 -5 -7 -9 -16 -9 -8 0 -13 -4 -9 -10 12 -19 36 2 33 29 -2 21 -9
27 -35 29 -27 3 -35 -1 -44 -22 -10 -20 -9 -30 5 -51 26 -39 78 -35 123 10 36
36 38 50 18 120 -6 19 -1 20 72 21 53 0 88 6 110 17 47 25 75 21 120 -18 44
-38 58 -68 68 -155 12 -98 45 -142 115 -151 22 -4 25 0 28 31 8 80 -42 164
-103 176 -24 4 -34 13 -44 39 -11 31 -71 94 -102 109 -8 3 -10 8 -4 11 6 3 48
33 95 66 115 83 176 110 251 112 53 2 63 -1 80 -21 26 -32 34 -86 19 -123 -13
-29 -54 -59 -84 -59 -24 0 -64 21 -70 37 -11 27 5 63 31 69 29 8 48 -8 39 -31
-5 -15 -9 -15 -23 -4 -14 12 -16 12 -11 -1 7 -23 43 -18 46 7 3 19 -29 53 -50
53 -19 0 -48 -43 -48 -70 0 -87 144 -96 180 -11 12 31 10 90 -5 125 -8 17 -7
17 26 1 45 -23 108 -72 136 -104 27 -31 30 -88 8 -130 -32 -63 -125 -64 -125
-1 0 34 24 50 43 31 9 -10 7 -16 -8 -28 l-20 -15 20 4 c13 2 21 12 23 31 3 24
0 27 -25 27 -53 0 -72 -51 -33 -90 58 -58 173 25 156 112 -5 26 -3 29 12 23 9
-4 29 -11 44 -17 16 -6 25 -15 22 -23 -10 -24 24 -83 56 -100 60 -31 79 4 36
67 l-24 36 37 6 c20 3 69 22 109 41 83 41 118 41 152 -3 28 -35 23 -79 -12
-105 -36 -27 -78 -17 -78 19 0 28 28 44 41 23 7 -11 9 -10 9 4 0 28 -29 32
-53 9 -17 -18 -19 -26 -11 -49 20 -59 124 -31 139 37 7 33 -26 87 -63 101 -25
10 -26 12 -7 19 45 19 93 11 129 -20 37 -33 51 -66 61 -146 7 -58 33 -105 69
-129 36 -24 49 -11 43 42 -5 47 -32 85 -79 109 -17 9 -28 23 -28 35 0 26 -16
57 -49 93 l-26 29 35 -6 c19 -4 94 -36 166 -72 118 -58 135 -70 163 -112 74
-111 64 -228 -23 -270 -44 -21 -84 -11 -92 22 -9 36 2 55 30 55 29 0 44 -19
25 -31 -7 -4 -10 -11 -7 -14 10 -11 28 4 28 24 0 41 -47 54 -80 21 -64 -64 34
-131 117 -80 78 47 88 159 23 263 -32 52 -31 53 55 32 36 -9 79 -12 108 -8 43
5 51 3 78 -23 35 -34 37 -54 5 -54 -26 0 -80 -54 -73 -74 4 -12 31 -13 65 -2
17 6 22 4 22 -11 1 -35 67 -92 90 -78 15 9 12 82 -5 115 l-15 30 28 -6 c19 -4
36 1 55 17 33 25 27 34 -32 48 -39 8 -46 7 -67 -14 -21 -21 -24 -22 -29 -5 -3
9 -14 25 -25 35 -28 25 -26 30 23 44 23 7 71 29 107 49 153 86 238 98 328 48
26 -14 76 -40 111 -57 73 -37 105 -77 96 -124 -7 -40 -34 -64 -78 -72 -32 -5
-38 -3 -48 20 -6 14 -9 33 -5 42 8 22 50 15 54 -9 3 -14 0 -17 -12 -13 -9 4
-16 2 -16 -3 0 -16 17 -20 35 -6 15 10 16 16 6 35 -10 17 -20 21 -44 19 -28
-3 -32 -7 -35 -36 -2 -18 2 -40 9 -48 29 -35 132 1 145 51 6 25 2 63 -11 96
-5 14 1 16 42 12 46 -4 76 1 170 28 39 12 44 11 80 -14 53 -37 70 -71 82 -161
12 -103 41 -143 114 -160 27 -6 27 -6 27 44 0 93 -53 170 -117 170 -14 0 -22
9 -26 28 -6 30 -83 112 -104 112 -26 0 -10 16 63 65 129 86 165 106 226 121
102 26 147 1 156 -85 4 -46 2 -53 -26 -81 -34 -34 -74 -39 -110 -14 -41 28
-21 101 25 92 27 -5 30 -38 3 -38 -12 0 -18 -5 -15 -10 10 -16 42 -12 49 6 7
19 -8 50 -30 58 -23 9 -62 -19 -70 -50 -11 -43 23 -78 80 -82 40 -3 50 1 76
27 26 25 30 37 30 81 0 28 -5 60 -11 71 -10 19 -9 19 33 -2 70 -35 136 -96
147 -135 25 -91 -68 -186 -123 -125 -23 26 -18 66 9 66 11 0 21 -8 23 -17 2
-11 -3 -18 -13 -18 -9 0 -14 -4 -10 -10 7 -12 32 -2 39 16 10 25 -5 44 -35 44
-47 0 -58 -49 -21 -92 19 -22 54 -23 92 -3 36 19 52 47 60 101 l5 42 38 -15
c32 -13 37 -20 37 -47 1 -46 49 -96 94 -96 23 0 20 52 -4 83 -11 14 -20 27
-20 30 0 3 17 8 37 12 20 3 67 22 105 41 37 19 74 34 82 34 32 0 66 -24 82
-58 15 -33 15 -36 -3 -61 -38 -51 -103 -51 -103 1 0 27 30 35 47 12 14 -18 15
-19 11 0 -9 51 -68 40 -68 -13 0 -35 17 -51 55 -51 36 0 72 29 81 67 10 37
-21 89 -60 103 -28 11 -29 13 -11 20 35 15 87 11 120 -10 40 -24 61 -66 70
-140 9 -67 35 -121 69 -143 39 -26 46 -21 46 32 0 41 -5 53 -32 80 -17 17 -39
33 -49 36 -10 3 -21 20 -25 38 -8 38 -30 75 -58 100 -21 18 -21 19 14 13 19
-3 93 -34 164 -68 93 -46 136 -72 156 -98 65 -82 81 -194 35 -248 -62 -74
-165 -61 -140 19 10 30 61 23 58 -9 -3 -25 15 -30 24 -7 7 19 -24 55 -48 55
-45 0 -66 -71 -31 -103 10 -10 35 -17 55 -17 48 0 112 59 122 113 9 47 -9 121
-41 170 -14 22 -24 41 -22 43 3 2 37 -3 76 -11 40 -9 89 -13 111 -9 46 7 76
-6 96 -46 19 -37 19 -38 -8 -33 -31 6 -77 -32 -77 -64 0 -26 12 -27 64 -7 11
4 16 1 16 -11 0 -22 63 -85 84 -85 23 0 22 97 -1 129 -16 24 -16 24 15 18 25
-5 38 -1 59 18 l28 23 -28 11 c-48 18 -94 14 -111 -11 -12 -17 -16 -18 -16 -7
0 9 -11 28 -25 43 -30 33 -31 36 -5 36 11 0 20 5 20 11 0 8 -12 10 -35 6 -39
-6 -41 -3 -23 55 16 54 68 98 116 98 47 0 82 -30 81 -68 0 -27 0 -27 -10 -4
-14 37 -53 26 -57 -15 -3 -28 0 -33 24 -39 33 -8 54 15 54 59 0 63 -51 96
-121 77 -43 -12 -62 -28 -86 -73 l-16 -32 -18 40 c-23 53 -23 70 2 115 14 25
39 48 73 66 28 15 59 34 68 42 21 18 24 72 5 72 -26 0 -57 -31 -57 -58 0 -21
-9 -32 -38 -49 -24 -13 -48 -39 -63 -67 -13 -25 -27 -46 -30 -46 -4 0 -19 28
-35 62 -25 54 -29 75 -29 148 0 102 10 124 131 299 66 96 89 121 139 152 130
81 175 135 175 212 0 55 -8 58 -65 19 -50 -35 -65 -64 -65 -129 0 -50 -1 -52
-50 -87 -27 -20 -50 -34 -50 -32 0 3 7 32 16 66 27 106 -3 190 -112 312 -56
62 -84 128 -84 194 0 55 5 59 64 56 49 -3 55 -1 80 28 15 18 25 38 23 44 -4
13 -83 14 -110 2 -14 -7 -10 7 18 65 39 83 44 136 23 260 -14 82 -5 108 51
146 43 29 51 29 51 -2 0 -47 58 -83 88 -53 16 16 -1 44 -41 68 -32 20 -32 20
-6 20 33 0 69 39 72 76 2 25 -2 29 -28 32 -24 3 -35 -3 -57 -29 l-28 -33 0 26
c0 25 -22 58 -40 58 -11 0 -20 -26 -20 -59 0 -37 22 -66 44 -58 10 4 15 3 11
-3 -3 -6 -13 -10 -20 -10 -24 0 -84 -60 -94 -94 -8 -30 -10 -28 -65 84 -87
180 -96 252 -33 290 41 25 82 25 107 0 37 -37 21 -90 -27 -90 -18 0 -23 6 -23
25 0 14 5 25 10 25 6 0 10 -5 10 -11 0 -5 5 -7 10 -4 12 7 -5 35 -21 35 -19 0
-32 -46 -20 -69 24 -45 91 -12 91 45 0 73 -79 98 -152 49 l-37 -25 5 38 c11
81 27 128 74 221 28 53 50 103 50 110 0 9 10 11 38 6 32 -5 42 -2 65 19 15 14
27 29 27 34 0 15 -40 22 -67 11 -39 -15 -41 -12 -31 44 11 58 40 112 69 127
27 15 81 15 107 1 41 -22 40 -91 -2 -99 -20 -4 -33 25 -18 40 8 8 15 8 27 -2
8 -7 15 -8 15 -2 0 20 -26 32 -42 19 -28 -22 -29 -46 -2 -63 23 -16 26 -15 44
1 12 11 20 31 20 50 0 103 -150 114 -200 14 l-22 -42 -20 44 c-35 79 -7 134
97 192 52 28 60 37 63 65 3 25 0 32 -15 32 -30 -1 -53 -25 -53 -57 0 -25 -6
-33 -31 -43 -33 -14 -89 -82 -89 -109 -1 -13 -4 -12 -16 4 -29 36 -55 107 -61
165 -10 95 10 148 108 295 91 137 119 167 197 212 101 57 142 115 142 198 l0
45 -39 -19 c-65 -34 -91 -73 -91 -140 0 -57 0 -57 -46 -90 -25 -18 -48 -31
-49 -29 -2 2 3 29 12 61 26 102 -4 187 -107 304 -62 70 -90 132 -90 199 0 56
6 61 58 57 37 -4 53 -1 73 16 64 50 27 99 -52 68 -22 -9 -39 -13 -37 -9 2 4
16 31 31 61 36 67 44 139 27 246 -16 102 -10 125 38 159 42 29 67 34 59 12
-10 -24 31 -66 63 -66 16 0 31 4 34 9 11 17 -44 71 -72 72 -20 1 -22 2 -7 6
11 2 30 6 43 9 24 5 62 57 62 86 0 38 -76 24 -103 -20 -16 -26 -16 -26 -17 -4
0 31 -17 62 -34 62 -32 0 -35 -78 -5 -106 17 -16 22 -16 29 -4 7 10 10 11 10
3 0 -7 -15 -19 -34 -27 -42 -18 -74 -52 -84 -90 -8 -29 -9 -27 -49 50 -49 96
-93 215 -93 254 0 45 38 81 91 87 40 5 48 2 63 -18 30 -44 15 -89 -31 -89 -18
0 -23 6 -23 26 0 20 4 25 16 20 10 -4 14 -1 12 6 -7 21 -26 20 -38 -2 -24 -44
15 -79 62 -56 31 16 37 73 10 107 -27 32 -89 33 -132 0 -17 -12 -33 -21 -35
-19 -1 1 1 30 6 63 9 69 29 120 69 185 15 25 34 62 41 83 13 36 16 39 47 33
27 -4 39 1 65 24 27 25 30 31 17 40 -14 10 -48 8 -81 -5 -15 -5 -15 0 -7 47
13 69 32 105 71 129 58 36 137 4 137 -56 0 -27 -24 -49 -45 -41 -18 7 -20 46
-2 46 7 0 18 -5 25 -12 9 -9 12 -8 12 4 0 19 -24 30 -46 21 -10 -4 -14 -16
-12 -37 2 -24 8 -32 26 -34 34 -5 52 15 52 58 0 56 -38 84 -103 77 -48 -4 -97
-36 -97 -63 0 -6 -6 -17 -14 -23 -11 -10 -17 -4 -31 33 -29 77 -2 126 103 182
53 28 71 56 58 89 -5 14 -9 14 -36 0 -27 -14 -35 -29 -31 -62 1 -7 -11 -19
-26 -27 -37 -19 -69 -54 -86 -94 l-14 -34 -21 36 c-56 95 -66 230 -22 316 30
58 164 251 195 280 15 14 56 43 92 65 93 56 126 100 131 175 2 33 2 60 -2 60
-3 0 -28 -13 -54 -30 -57 -35 -72 -62 -72 -133 -1 -51 -2 -53 -47 -84 -26 -18
-49 -31 -50 -29 -2 2 2 16 8 32 6 16 11 58 12 94 0 82 -31 151 -106 235 -30
33 -62 75 -71 92 -20 40 -31 112 -22 148 6 25 10 27 43 20 47 -9 90 10 109 48
13 25 14 31 2 38 -20 13 -56 11 -88 -6 -17 -9 -30 -14 -30 -11 0 2 15 33 32
67 29 57 33 73 33 144 -1 44 -5 108 -9 142 -7 51 -6 67 8 88 18 28 84 65 116
65 53 0 112 64 96 105 -12 33 -76 12 -100 -33 l-15 -27 -1 31 c0 35 -22 59
-45 50 -22 -8 -20 -79 3 -99 14 -13 21 -14 30 -5 9 9 12 9 12 1 0 -7 -10 -15
-22 -18 -41 -13 -87 -55 -96 -88 l-8 -32 -32 55 c-53 92 -95 209 -96 270 -1
30 -5 58 -9 61 -4 3 -5 14 -1 23 6 15 15 17 48 13 24 -3 53 0 71 8 l30 13 -33
1 -33 1 21 28 c29 39 36 96 17 126 -38 57 -131 36 -125 -27 3 -29 6 -32 38
-32 28 0 35 4 35 19 0 11 -7 22 -15 24 -13 5 -13 3 -1 -11 11 -14 11 -18 -3
-23 -23 -9 -46 3 -46 24 0 38 47 55 91 32 42 -23 15 -131 -39 -151 -35 -14
-130 14 -252 73 l-105 51 31 13 c31 13 84 67 84 85 0 6 12 1 26 -10 31 -24 62
-27 89 -7 16 12 17 16 6 30 -7 9 -27 16 -44 16 l-31 0 32 28 c43 36 50 86 11
90 -41 5 -76 -31 -89 -91 -6 -28 -21 -67 -33 -84 -33 -48 -63 -55 -165 -37
-108 19 -157 13 -244 -31 -38 -19 -68 -33 -68 -31 0 2 7 17 15 32 16 31 19 53
9 78 -9 24 -32 19 -66 -14 -28 -29 -30 -35 -24 -79 l6 -49 -35 -6 c-68 -13
-152 21 -234 96 -80 73 -142 102 -221 102 -36 1 -83 -3 -104 -8 l-39 -9 33 47
c31 43 37 46 77 46 67 0 109 22 143 76 16 27 30 52 30 56 0 10 -45 10 -88 2
-46 -9 -105 -65 -165 -157 -50 -77 -62 -88 -178 -166 -68 -46 -142 -92 -164
-102 -77 -35 -234 -20 -309 30 l-30 20 27 10 c43 17 85 51 97 82 9 21 20 29
43 31 38 4 70 49 50 69 -21 21 -60 -5 -87 -58 -42 -80 -80 -113 -130 -113 -34
0 -96 20 -96 32 0 4 18 17 39 28 45 23 67 70 58 127 -8 45 -22 61 -62 69 -49
9 -77 -10 -73 -49 2 -26 8 -33 30 -35 19 -2 30 3 38 18 13 24 6 40 -18 39 -11
0 -12 -3 -4 -6 16 -6 15 -30 -1 -36 -22 -8 -40 8 -33 31 14 41 78 30 104 -18
24 -48 -6 -113 -68 -145 -28 -14 -120 -30 -120 -20 0 3 5 15 11 27 13 25 4 68
-15 68 -27 0 -57 -50 -50 -85 5 -30 3 -33 -35 -49 -23 -9 -59 -27 -81 -41 -61
-39 -136 -65 -204 -72 l-61 -6 23 25 c53 58 46 138 -13 158 -59 20 -111 -22
-85 -70 13 -25 65 -28 74 -4 7 18 0 34 -15 34 -5 0 -9 -8 -7 -17 4 -25 -36
-24 -40 0 -9 45 59 64 93 27 32 -35 6 -113 -48 -141 -27 -15 -127 14 -249 73
l-108 51 39 18 c39 17 81 65 81 93 0 9 4 16 10 16 5 0 7 -6 4 -14 -6 -17 32
-46 61 -46 12 0 30 6 40 14 16 12 17 16 6 30 -7 9 -27 16 -43 16 l-30 0 31 29
c21 20 31 38 31 58 0 41 -7 45 -49 27 -43 -18 -61 -39 -61 -73 -1 -25 -1 -24
-15 6 -17 40 -62 65 -75 42 -20 -30 21 -89 61 -89 23 0 23 -3 5 -38 -34 -65
-69 -76 -184 -56 -107 19 -154 13 -239 -31 -50 -27 -63 -31 -58 -17 18 43 22
69 14 90 -11 29 -30 28 -64 -5 -24 -25 -27 -34 -23 -80 5 -51 4 -51 -28 -58
-67 -12 -149 20 -225 89 -110 99 -210 133 -315 107 -25 -7 -48 -10 -50 -8 -2
1 11 23 29 48 30 41 34 44 74 41 59 -4 108 22 138 73 14 23 25 47 25 53 0 14
-51 15 -92 2z m60 -41 c-32 -57 -56 -71 -120 -67 l-53 3 44 43 c43 41 81 59
129 61 l23 1 -23 -41z m2772 36 c0 -14 -52 -85 -69 -95 -23 -12 -111 -14 -111
-2 0 10 18 32 47 56 34 28 133 59 133 41z m-1710 -115 c0 -27 -43 -70 -70 -70
-29 0 -25 26 9 61 35 34 61 38 61 9z m2750 -4 c0 -28 -42 -66 -72 -66 -26 0
-16 36 18 68 33 29 54 28 54 -2z m-2883 -36 c6 -13 9 -28 6 -33 -8 -14 -48 18
-51 43 -5 30 28 23 45 -10z m-1617 -45 c0 -17 -29 -34 -47 -28 -9 3 -10 10 -3
24 12 22 50 26 50 4z m2753 -5 c-3 -11 -9 -20 -13 -20 -5 0 -15 -3 -24 -6 -19
-7 -22 16 -4 34 20 20 47 15 41 -8z m-996 -26 c2 -6 -4 -14 -14 -16 -24 -6
-63 8 -63 22 0 15 72 9 77 -6z m2750 0 c2 -6 -4 -14 -14 -16 -24 -6 -63 8 -63
22 0 15 72 9 77 -6z m-4917 -25 c0 -24 -17 -59 -29 -59 -16 0 -19 39 -4 59 18
27 33 27 33 0z m2750 0 c0 -25 -17 -59 -30 -59 -14 0 -12 54 2 68 18 18 28 15
28 -9z m-1190 -27 c0 -34 -36 -95 -53 -89 -7 2 -13 19 -15 38 -2 27 3 41 24
62 30 31 44 27 44 -11z m2750 -1 c0 -49 -43 -107 -60 -81 -18 27 -11 61 19 91
16 16 32 29 35 29 3 0 6 -18 6 -39z m440 -98 c63 -32 130 -71 149 -88 27 -24
31 -26 22 -8 -11 21 -10 21 21 12 18 -5 33 -9 33 -9 0 0 -1 -17 -3 -37 -2 -21
3 -67 11 -103 9 -36 14 -66 13 -67 -1 -2 -29 12 -62 29 -50 28 -69 33 -126 33
l-68 0 0 42 c0 33 -6 48 -30 72 -17 16 -39 32 -49 36 -12 3 -23 22 -30 49 -6
24 -24 58 -41 76 l-31 33 38 -6 c21 -4 90 -32 153 -64z m-3326 -74 c48 -57 22
-96 -29 -44 -27 26 -34 75 -11 75 8 0 26 -14 40 -31z m2738 20 c20 -11 54 -77
44 -86 -14 -14 -55 10 -70 41 -26 55 -19 69 26 45z m-2227 -70 c29 -26 35 -38
35 -70 0 -21 -4 -39 -8 -39 -25 0 -72 78 -72 121 0 25 3 24 45 -12z m2751 4
c29 -24 34 -34 34 -71 0 -40 -1 -42 -21 -32 -30 17 -77 130 -53 130 3 0 21
-12 40 -27z m-2097 -42 c33 -21 -14 -39 -67 -25 -18 5 -20 9 -11 20 13 16 57
18 78 5z m-1768 -46 c19 -13 39 -73 39 -120 0 -43 -1 -46 -22 -40 -13 4 -36
20 -52 36 -25 23 -30 38 -34 88 l-4 60 30 -9 c17 -4 36 -12 43 -15z m2724 11
c40 -17 61 -54 71 -124 8 -61 -2 -66 -57 -29 -37 25 -58 70 -58 130 -1 42 -2
42 44 23z m-1107 -28 c-14 -21 -58 -38 -58 -23 0 22 24 45 47 45 24 0 25 -1
11 -22z m86 -15 c25 -90 10 -116 -36 -64 -30 34 -34 51 -18 82 9 15 15 17 30
9 10 -5 21 -18 24 -27z m-2784 -121 l-12 -27 -10 25 c-6 17 -5 33 3 50 l11 25
11 -23 c7 -16 7 -30 -3 -50z m5505 9 c-6 -26 -9 -30 -21 -20 -15 12 -18 37 -8
64 6 15 9 15 21 2 11 -10 13 -24 8 -46z m-5595 29 c18 -10 45 -69 35 -78 -13
-13 -73 28 -83 57 -10 28 -9 31 9 31 11 0 29 -4 39 -10z m5710 -7 c-1 -23 -19
-46 -47 -61 -47 -25 -56 -8 -23 46 22 36 70 47 70 15z m-5250 -181 c0 -20 -86
-72 -120 -72 -18 0 -11 23 17 52 20 21 36 28 65 28 21 0 38 -4 38 -8z m4842
-19 c27 -26 37 -53 19 -53 -37 0 -121 50 -121 72 0 4 17 8 37 8 26 0 45 -8 65
-27z m-5119 -394 c12 -6 28 -19 34 -29 10 -15 8 -19 -18 -24 -26 -5 -89 15
-89 28 0 3 -3 11 -6 20 -5 12 1 16 24 16 17 0 42 -5 55 -11z m5377 5 c0 -36
-59 -68 -105 -56 l-30 8 29 27 c21 20 40 27 67 27 22 0 39 -3 39 -6z m-5189
-107 c-1 -4 -1 -14 -1 -22 0 -16 -55 -55 -77 -55 -21 0 -15 35 10 57 31 29 70
40 68 20z m4987 -20 c23 -21 30 -57 12 -57 -39 0 -97 58 -83 83 7 12 45 -2 71
-26z m-5411 -388 c16 -47 16 -99 0 -99 -32 0 -97 99 -97 149 l0 33 43 -25 c28
-17 46 -36 54 -58z m5849 -7 c-22 -43 -66 -92 -82 -92 -9 0 -14 11 -14 34 0
58 19 94 63 121 l42 25 3 -29 c2 -17 -4 -43 -12 -59z m-5196 -183 c0 -36 -60
-86 -112 -94 -75 -11 -80 -7 -59 41 22 47 65 70 144 73 21 1 27 -3 27 -20z
m4590 -4 c26 -13 50 -52 50 -80 0 -18 -38 -20 -92 -5 -41 12 -88 61 -88 92 0
19 4 20 52 14 28 -4 63 -13 78 -21z m-5129 -435 c19 -11 27 -50 10 -50 -15 0
-41 30 -41 46 0 17 5 17 31 4z m5569 -1 c0 -20 -21 -49 -35 -49 -21 0 -19 37
3 49 22 13 32 14 32 0z m-5479 -420 c11 -5 17 -14 14 -20 -10 -16 -51 -10 -70
11 -18 20 -17 20 9 20 15 0 36 -5 47 -11z m5423 -4 c-7 -18 -47 -30 -71 -20
-17 6 -17 7 1 21 27 20 77 19 70 -1z m-5156 -183 c2 -32 0 -42 -12 -42 -22 0
-29 17 -21 56 8 47 29 38 33 -14z m4858 14 c7 -39 0 -56 -22 -56 -10 0 -14 12
-14 38 0 61 25 74 36 18z m-4712 -35 c9 -13 -49 -71 -71 -71 -11 0 -28 6 -38
14 -17 12 -18 16 -5 31 25 30 101 48 114 26z m4640 -21 c21 -21 21 -21 2 -36
-11 -8 -28 -14 -39 -14 -23 0 -80 58 -71 72 10 17 85 1 108 -22z m-4742 -72
c16 -14 31 -58 19 -58 -17 0 -51 33 -51 51 0 22 10 24 32 7z m4768 -7 c0 -18
-34 -51 -52 -51 -11 0 11 53 25 62 19 12 27 9 27 -11z m-5132 -293 c2 -13 -4
-30 -12 -37 -12 -10 -16 -8 -21 8 -8 27 3 63 18 58 7 -2 13 -15 15 -29z m5497
12 c3 -11 3 -29 0 -41 -5 -16 -10 -18 -21 -8 -8 6 -14 21 -14 34 0 38 24 49
35 15z m-5588 -12 c30 -33 39 -68 18 -68 -27 0 -54 19 -69 49 -24 46 14 59 51
19z m5703 2 c0 -12 -11 -32 -25 -45 -28 -29 -71 -35 -61 -9 3 9 6 19 6 23 0 4
9 17 20 29 27 28 60 29 60 2z m-5670 -112 c0 -19 -31 -48 -52 -48 -21 0 -23
10 -5 32 19 25 57 36 57 16z m5638 -16 c17 -22 15 -32 -5 -32 -21 0 -53 29
-53 47 0 18 40 8 58 -15z m-5218 -50 c0 -24 -78 -72 -116 -72 -21 0 -17 15 12
49 21 25 33 31 65 31 21 0 39 -4 39 -8z m4844 -23 c29 -34 33 -49 12 -49 -38
0 -116 48 -116 72 0 4 18 8 39 8 32 0 44 -6 65 -31z m-5104 -405 c34 -29 28
-44 -21 -44 -30 0 -79 34 -79 56 0 25 65 17 100 -12z m5360 12 c0 -22 -49 -56
-79 -56 -49 0 -55 15 -21 44 35 29 100 37 100 12z m-5187 -116 c-7 -27 -50
-60 -78 -60 -18 0 -22 4 -18 20 7 27 50 60 78 60 18 0 22 -4 18 -20z m4981 -1
c31 -24 35 -59 7 -59 -24 0 -67 34 -74 60 -7 27 31 27 67 -1z m-5404 -397 c12
-46 13 -102 1 -102 -13 0 -81 78 -91 106 -6 14 -10 38 -10 54 l0 29 45 -25
c34 -20 47 -34 55 -62z m5856 23 c-6 -32 -78 -125 -97 -125 -12 0 -11 56 1
102 8 27 21 43 53 61 47 28 54 22 43 -38z m-5206 -200 c0 -56 -65 -105 -139
-105 -34 0 -41 3 -41 20 0 37 51 80 105 89 73 13 75 12 75 -4z m4586 -12 c30
-13 54 -48 54 -78 0 -21 -72 -20 -116 1 -34 16 -64 58 -64 88 0 13 9 14 48 10
26 -4 61 -13 78 -21z m-5108 -467 c4 -29 3 -29 -20 -14 -33 22 -37 51 -6 46
17 -2 24 -10 26 -32z m5552 20 c0 -8 -10 -22 -22 -31 -21 -14 -23 -14 -26 0
-6 26 6 45 28 45 11 0 20 -6 20 -14z m-5479 -406 c29 -16 23 -30 -14 -30 -31
0 -57 14 -57 32 0 11 48 10 71 -2z m5419 -10 c-8 -15 -21 -20 -48 -20 l-37 1
24 19 c13 11 34 20 47 20 22 0 23 -3 14 -20z m-5152 -169 c2 -18 1 -40 -3 -49
-5 -14 -7 -14 -22 0 -11 12 -14 26 -9 53 9 44 30 42 34 -4z m4858 4 c6 -36 -9
-70 -27 -59 -10 6 -12 77 -2 87 14 14 22 6 29 -28z m-4718 -57 c-22 -34 -60
-52 -91 -44 -59 15 -12 66 61 66 44 0 44 0 30 -22z m4643 3 c20 -16 21 -21 10
-35 -26 -31 -87 -12 -111 35 -10 17 -7 19 34 19 28 0 52 -7 67 -19z m-4722
-104 c5 -13 5 -23 -1 -26 -14 -5 -48 30 -48 51 0 16 3 17 21 8 11 -6 24 -21
28 -33z m4735 -8 c-22 -24 -34 -24 -34 0 0 11 10 27 23 36 20 14 22 14 25 0 2
-9 -4 -25 -14 -36z m-5119 -249 c7 -23 -2 -60 -15 -60 -5 0 -12 9 -15 20 -7
23 2 60 15 60 5 0 12 -9 15 -20z m5500 0 c7 -23 -2 -60 -15 -60 -13 0 -24 46
-16 65 8 21 23 19 31 -5z m-5591 -12 c34 -32 44 -68 18 -68 -42 0 -89 60 -65
83 11 11 21 8 47 -15z m5706 -2 c0 -28 -42 -66 -72 -66 -26 0 -16 36 18 68 33
29 54 28 54 -2z m-5670 -112 c0 -20 -24 -44 -45 -44 -29 0 -31 7 -8 32 15 17
53 26 53 12z m5632 -11 c25 -22 23 -33 -7 -33 -21 0 -45 24 -45 44 0 12 34 5
52 -11z m-5212 -53 c0 -27 -68 -70 -111 -70 -26 0 -24 13 10 49 22 24 38 31
65 31 20 0 36 -4 36 -10z m4841 -21 c16 -17 29 -36 29 -41 0 -17 -67 -2 -100
22 -42 30 -39 50 6 50 27 0 43 -7 65 -31z m-5111 -401 c44 -30 43 -42 -4 -46
-29 -3 -44 2 -62 19 -13 12 -24 28 -24 36 0 21 53 15 90 -9z m5370 9 c0 -8
-11 -24 -24 -36 -18 -17 -33 -22 -62 -19 -48 4 -49 15 -5 45 37 25 91 31 91
10z m-5187 -117 c-10 -39 -93 -83 -93 -49 0 34 39 67 82 68 11 1 15 -5 11 -19z
m4988 -6 c9 -8 19 -24 22 -35 4 -15 0 -19 -20 -19 -25 0 -83 49 -83 70 0 17
58 5 81 -16z m-5473 -328 c45 -23 61 -49 68 -109 4 -31 4 -57 0 -57 -37 0
-106 96 -106 147 0 38 1 38 38 19z m5922 -18 c0 -37 -23 -79 -65 -120 -35 -35
-45 -35 -45 1 0 64 12 93 53 122 22 16 44 29 49 29 4 0 8 -15 8 -32z m-5210
-228 c0 -25 -32 -71 -60 -85 -16 -8 -49 -15 -75 -15 -37 0 -45 3 -45 19 0 28
38 70 73 80 44 13 107 13 107 1z m4573 -3 c38 -17 53 -33 62 -70 7 -27 6 -27
-39 -27 -73 0 -136 43 -136 92 0 14 8 18 40 18 22 0 55 -6 73 -13z m-3713
-360 c0 -23 -50 -87 -73 -91 -58 -12 -94 -16 -100 -10 -20 20 64 90 125 104
47 11 48 11 48 -3z m2744 -26 c-34 -57 -44 -65 -93 -71 -82 -10 -90 -1 -37 48
24 23 57 44 73 48 15 3 33 7 38 8 27 8 35 -6 19 -33z m1071 -1 c0 -8 -10 -16
-22 -18 -22 -3 -32 16 -16 32 12 11 38 2 38 -14z m-5207 -62 c13 -13 17 -48 5
-48 -12 0 -43 33 -43 47 0 16 22 17 38 1z m5562 0 c0 -14 -30 -48 -42 -48 -12
0 -10 34 4 48 15 15 38 16 38 0z m-3120 -16 c0 -27 -27 -59 -60 -70 -27 -10
-30 -9 -30 9 0 24 52 79 74 79 9 0 16 -8 16 -18z m2750 -7 c0 -13 -9 -33 -21
-44 -22 -21 -69 -34 -69 -19 0 21 33 70 53 78 33 13 37 12 37 -15z m-2890 -19
c6 -8 10 -24 8 -36 -3 -19 -4 -20 -25 -5 -25 18 -31 55 -9 55 7 0 19 -7 26
-14z m2759 -18 c9 -15 12 -30 9 -34 -12 -12 -58 25 -58 47 0 29 30 21 49 -13z
m-4369 -42 c0 -20 -27 -39 -46 -32 -15 6 -15 8 1 26 21 23 45 26 45 6z m2753
-3 c-11 -31 -53 -47 -53 -20 0 18 21 37 42 37 12 0 16 -5 11 -17z m-996 -30
c2 -6 -5 -14 -16 -18 -24 -7 -64 12 -55 26 8 13 66 7 71 -8z m2750 0 c2 -6 -5
-14 -16 -18 -24 -7 -64 12 -55 26 8 13 66 7 71 -8z m-4917 -17 c0 -24 -19 -66
-30 -66 -14 0 -13 53 2 68 16 16 28 15 28 -2z m2750 -14 c0 -27 -15 -52 -32
-52 -13 0 -9 55 4 68 19 19 28 14 28 -16z m1560 -21 c0 -28 -7 -49 -24 -68
-27 -32 -33 -30 -42 15 -5 26 -1 36 24 62 17 16 33 30 36 30 3 0 6 -18 6 -39z
m-2750 2 c0 -34 -36 -96 -53 -90 -21 7 -20 61 3 90 28 35 50 35 50 0z m3776
-100 c19 -26 17 -33 -11 -33 -18 0 -25 5 -25 18 0 34 16 41 36 15z m-3915 -72
c31 -32 39 -71 14 -71 -25 0 -65 46 -65 75 0 33 15 32 51 -4z m2733 18 c24
-11 63 -75 52 -86 -3 -3 -16 -3 -30 1 -25 6 -56 51 -56 81 0 18 2 18 34 4z
m-2219 -70 c29 -26 35 -38 35 -70 0 -21 -4 -39 -8 -39 -25 0 -72 78 -72 121 0
25 3 24 45 -12z m2750 0 c29 -26 35 -38 35 -70 0 -43 -9 -48 -33 -21 -28 31
-60 122 -42 122 2 0 20 -14 40 -31z m-4886 -6 l24 -16 -23 -9 c-25 -9 -75 15
-65 32 9 15 38 12 64 -7z m2790 -32 c33 -21 -28 -42 -73 -25 -13 5 -14 9 -5
20 13 16 57 18 78 5z m2749 3 c18 -5 20 -9 11 -20 -21 -26 -101 -11 -85 15 8
12 38 14 74 5z m-4531 -46 c30 -15 53 -67 53 -122 0 -51 -7 -55 -51 -29 -37
22 -59 69 -59 127 0 49 3 50 57 24z m2763 -3 c19 -12 39 -61 46 -115 l7 -53
-29 7 c-57 15 -94 71 -94 145 0 39 0 40 30 31 16 -5 34 -11 40 -15z m-1132
-17 c-14 -21 -58 -38 -58 -24 0 19 28 46 49 46 22 0 23 -1 9 -22z m86 -16 c11
-34 13 -82 4 -88 -16 -10 -56 25 -63 55 -9 42 10 75 35 61 10 -5 21 -18 24
-28z m2676 29 c0 -17 -31 -41 -51 -41 -20 0 -19 8 4 38 11 14 47 16 47 3z m77
-31 c17 -34 17 -90 0 -90 -15 0 -51 37 -59 60 -3 8 -1 25 3 38 11 30 39 26 56
-8z"/>
<path d="M1825 8639 c-4 -5 -4 -21 -1 -35 5 -20 12 -25 33 -22 54 6 58 68 4
68 -16 0 -33 -5 -36 -11z m55 -19 c0 -24 -26 -38 -42 -22 -16 16 -2 42 22 42
13 0 20 -7 20 -20z"/>
<path d="M4573 8634 c-9 -23 9 -48 37 -52 26 -4 40 12 40 46 0 19 -5 22 -35
22 -24 0 -38 -5 -42 -16z m61 -3 c9 -14 -4 -41 -19 -41 -17 0 -38 27 -30 40 8
12 42 13 49 1z"/>
<path d="M5370 8610 c0 -34 31 -70 60 -70 31 0 27 53 -6 79 -38 30 -54 27 -54
-9z m59 -22 c9 -15 12 -30 9 -34 -12 -12 -58 25 -58 47 0 29 30 21 49 -13z"/>
<path d="M1295 8600 c-8 -25 1 -40 25 -40 19 0 36 32 25 50 -11 17 -43 11 -50
-10z m39 -11 c-9 -15 -34 -10 -28 5 3 8 12 12 20 9 8 -3 11 -9 8 -14z"/>
<path d="M4051 8602 c-8 -15 -7 -23 3 -31 20 -17 48 -2 44 23 -4 27 -34 32
-47 8z m39 -12 c0 -5 -7 -10 -15 -10 -8 0 -15 5 -15 10 0 6 7 10 15 10 8 0 15
-4 15 -10z"/>
<path d="M1914 8506 c-9 -24 4 -48 23 -44 12 2 18 12 18 28 0 29 -32 41 -41
16z m34 -17 c-2 -6 -8 -10 -13 -10 -5 0 -11 4 -13 10 -2 6 4 11 13 11 9 0 15
-5 13 -11z"/>
<path d="M4664 8506 c-9 -24 4 -48 23 -44 12 2 18 12 18 28 0 29 -32 41 -41
16z m34 -17 c-2 -6 -8 -10 -13 -10 -5 0 -11 4 -13 10 -2 6 4 11 13 11 9 0 15
-5 13 -11z"/>
<path d="M3060 8455 c-28 -34 19 -77 56 -50 16 11 16 17 6 39 -13 29 -43 34
-62 11z m50 -25 c0 -13 -7 -20 -20 -20 -13 0 -20 7 -20 20 0 13 7 20 20 20 13
0 20 -7 20 -20z"/>
<path d="M5816 8454 c-21 -21 -20 -30 5 -47 27 -20 59 -10 59 17 0 42 -36 59
-64 30z m49 -24 c0 -8 -10 -16 -22 -18 -18 -3 -23 2 -23 18 0 16 5 21 23 18
12 -2 22 -10 22 -18z"/>
<path d="M437 8355 c-19 -18 -13 -41 13 -55 24 -13 52 14 48 44 -4 26 -40 33
-61 11z m46 -8 c8 -20 -9 -41 -27 -34 -19 8 -21 33 -3 40 20 9 25 8 30 -6z"/>
<path d="M1086 8217 c-33 -24 -1 -79 38 -64 21 8 22 63 0 71 -20 8 -17 8 -38
-7z m44 -27 c0 -13 -7 -20 -20 -20 -13 0 -20 7 -20 20 0 13 7 20 20 20 13 0
20 -7 20 -20z"/>
<path d="M3848 8223 c-36 -9 -27 -73 11 -73 30 0 46 26 33 55 -12 25 -14 26
-44 18z m35 -27 c7 -18 -11 -36 -29 -29 -8 3 -14 14 -14 24 0 22 35 26 43 5z"/>
<path d="M2320 8185 c-20 -24 -3 -55 30 -55 34 0 44 12 36 46 -7 28 -46 33
-66 9z m50 -20 c0 -25 -23 -35 -35 -15 -10 16 2 40 20 40 9 0 15 -9 15 -25z"/>
<path d="M5074 8186 c-12 -31 0 -51 31 -51 27 0 30 3 30 30 0 25 -4 30 -28 33
-17 2 -29 -2 -33 -12z m50 -12 c7 -19 -1 -34 -19 -34 -18 0 -28 17 -21 35 7
20 32 19 40 -1z"/>
<path d="M2896 7974 c-21 -20 -20 -31 3 -44 26 -14 29 -13 41 11 9 15 8 24 -1
35 -15 18 -24 18 -43 -2z m34 -19 c0 -8 -7 -15 -15 -15 -8 0 -15 7 -15 15 0 8
7 15 15 15 8 0 15 -7 15 -15z"/>
<path d="M274 7915 c-31 -31 -27 -49 10 -53 34 -4 66 22 66 55 0 32 -43 31
-76 -2z m66 7 c0 -15 -32 -52 -45 -52 -26 0 -29 23 -5 42 23 18 50 24 50 10z"/>
<path d="M5910 7917 c0 -30 29 -57 62 -57 35 0 39 8 23 40 -24 46 -85 58 -85
17z m60 -5 c24 -19 21 -42 -5 -42 -13 0 -45 37 -45 52 0 14 27 8 50 -10z"/>
<path d="M695 7619 c-4 -5 -4 -21 -1 -35 5 -18 13 -24 35 -24 32 0 40 12 33
47 -3 18 -11 23 -33 23 -15 0 -31 -5 -34 -11z m52 -15 c10 -26 -14 -41 -35
-21 -15 16 -15 19 -2 27 21 14 30 12 37 -6z"/>
<path d="M5495 7611 c-9 -31 5 -51 36 -51 22 0 30 6 35 24 8 34 -2 46 -36 46
-19 0 -31 -6 -35 -19z m50 -16 c0 -28 -29 -25 -33 3 -3 19 0 23 15 20 10 -2
18 -12 18 -23z"/>
<path d="M384 7195 c-15 -38 21 -60 47 -29 11 14 10 18 -6 30 -24 18 -34 18
-41 -1z m34 -16 c-2 -6 -8 -10 -13 -10 -5 0 -11 4 -13 10 -2 6 4 11 13 11 9 0
15 -5 13 -11z"/>
<path d="M5830 7190 c-7 -13 -5 -21 5 -30 19 -16 45 -6 45 19 0 26 -37 35 -50
11z m38 -12 c-6 -18 -28 -21 -28 -4 0 9 7 16 16 16 9 0 14 -5 12 -12z"/>
<path d="M247 7133 c-12 -12 -7 -50 8 -63 32 -27 82 23 55 55 -13 15 -51 20
-63 8z m53 -23 c8 -15 6 -21 -9 -29 -23 -13 -45 8 -35 33 8 22 31 20 44 -4z"/>
<path d="M5951 7126 c-16 -20 -5 -53 20 -61 27 -9 51 13 47 44 -2 20 -9 27
-29 29 -14 2 -31 -4 -38 -12z m53 -12 c10 -25 -12 -46 -35 -33 -15 8 -17 14
-9 29 13 24 36 26 44 4z"/>
<path d="M276 6575 c-6 -17 21 -48 38 -42 6 2 12 16 14 30 3 23 0 27 -21 27
-14 0 -27 -7 -31 -15z m42 -13 c2 -7 -3 -12 -12 -12 -9 0 -16 7 -16 16 0 17
22 14 28 -4z"/>
<path d="M5932 6563 c2 -22 8 -27 23 -25 42 8 40 52 -2 52 -21 0 -24 -4 -21
-27z m38 2 c0 -8 -7 -15 -15 -15 -8 0 -15 7 -15 15 0 8 7 15 15 15 8 0 15 -7
15 -15z"/>
<path d="M683 6383 c-20 -8 -15 -51 7 -63 15 -8 24 -6 40 10 34 34 0 73 -47
53z m47 -29 c0 -19 -28 -30 -42 -16 -8 8 -8 15 1 26 14 17 41 10 41 -10z"/>
<path d="M5522 6373 c-12 -23 -5 -41 20 -54 25 -13 48 4 48 36 0 36 -52 49
-68 18z m54 -32 c-10 -16 -36 -13 -43 5 -8 22 18 37 36 20 7 -8 10 -19 7 -25z"/>
<path d="M437 5606 c-19 -20 -11 -53 15 -61 26 -9 50 13 46 44 -4 31 -37 40
-61 17z m43 -26 c0 -13 -7 -20 -20 -20 -13 0 -20 7 -20 20 0 13 7 20 20 20 13
0 20 -7 20 -20z"/>
<path d="M5764 5606 c-15 -40 21 -81 50 -57 21 17 21 57 0 65 -26 10 -44 7
-50 -8z m56 -26 c0 -23 -35 -28 -43 -6 -7 18 1 26 25 26 11 0 18 -7 18 -20z"/>
<path d="M917 5433 c-12 -11 -8 -40 8 -53 18 -15 45 2 45 30 0 23 -37 39 -53
23z m41 -25 c-3 -7 -11 -13 -18 -13 -7 0 -15 6 -17 13 -3 7 4 12 17 12 13 0
20 -5 18 -12z"/>
<path d="M5303 5433 c-18 -7 -16 -38 2 -53 20 -17 47 5 43 34 -3 21 -22 29
-45 19z m35 -25 c-3 -7 -11 -13 -18 -13 -7 0 -15 6 -17 13 -3 7 4 12 17 12 13
0 20 -5 18 -12z"/>
<path d="M702 4868 c-18 -18 -14 -46 7 -58 37 -19 65 7 50 48 -9 24 -38 29
-57 10z m48 -28 c0 -13 -7 -20 -20 -20 -13 0 -20 7 -20 20 0 13 7 20 20 20 13
0 20 -7 20 -20z"/>
<path d="M5500 4865 c-23 -28 9 -72 45 -59 36 14 24 74 -15 74 -10 0 -23 -7
-30 -15z m50 -25 c0 -13 -7 -20 -20 -20 -13 0 -20 7 -20 20 0 13 7 20 20 20
13 0 20 -7 20 -20z"/>
<path d="M380 4425 c0 -20 5 -25 24 -25 25 0 36 15 29 38 -3 6 -16 12 -29 12
-19 0 -24 -5 -24 -25z m40 0 c0 -8 -4 -15 -9 -15 -13 0 -22 16 -14 24 11 11
23 6 23 -9z"/>
<path d="M5828 4438 c-9 -23 3 -38 29 -38 20 0 24 4 21 23 -3 25 -42 37 -50
15z m34 -13 c0 -5 -5 -11 -11 -13 -6 -2 -11 4 -11 13 0 9 5 15 11 13 6 -2 11
-8 11 -13z"/>
<path d="M244 4375 c-4 -8 -3 -26 0 -40 11 -43 76 -28 76 17 0 32 -65 52 -76
23z m51 -11 c15 -15 15 -18 1 -33 -14 -14 -18 -14 -31 0 -9 9 -13 23 -9 32 8
21 18 21 39 1z"/>
<path d="M5952 4378 c-27 -27 -6 -68 35 -68 24 0 40 36 29 65 -7 18 -47 20
-64 3z m45 -46 c-13 -12 -19 -13 -31 -3 -18 15 -11 38 12 43 25 6 37 -21 19
-40z"/>
<path d="M277 3827 c-8 -22 17 -51 37 -44 25 10 17 51 -10 55 -12 2 -24 -3
-27 -11z m41 -15 c2 -7 -3 -12 -12 -12 -9 0 -16 7 -16 16 0 17 22 14 28 -4z"/>
<path d="M5934 3825 c-8 -21 2 -45 19 -45 21 0 38 25 31 44 -8 20 -43 21 -50
1z m36 -16 c0 -5 -7 -9 -15 -9 -15 0 -20 12 -9 23 8 8 24 -1 24 -14z"/>
<path d="M5538 3633 c-27 -7 -31 -35 -8 -57 16 -16 24 -18 38 -10 39 25 16 77
-30 67z m37 -33 c0 -8 -10 -16 -22 -18 -18 -3 -23 2 -23 18 0 16 5 21 23 18
12 -2 22 -10 22 -18z"/>
<path d="M672 3604 c2 -15 11 -32 21 -38 15 -9 22 -7 37 12 26 32 16 52 -27
52 -31 0 -34 -2 -31 -26z m56 -1 c5 -17 -26 -29 -40 -15 -6 6 -7 15 -3 22 9
14 37 9 43 -7z"/>
<path d="M442 2853 c-27 -24 -14 -66 19 -61 30 4 47 33 33 55 -15 24 -28 26
-52 6z m43 -12 c3 -5 -2 -17 -11 -26 -19 -19 -40 -6 -31 19 7 17 32 21 42 7z"/>
<path d="M5770 2855 c-24 -29 8 -75 44 -62 22 9 20 54 -3 67 -25 13 -26 13
-41 -5z m47 -21 c9 -23 -19 -38 -34 -17 -7 9 -10 20 -7 24 9 15 34 10 41 -7z"/>
<path d="M923 2683 c-18 -6 -16 -38 2 -53 20 -16 45 -6 45 19 0 22 -27 41 -47
34z m35 -31 c3 -9 -2 -13 -14 -10 -9 1 -19 9 -22 16 -3 9 2 13 14 10 9 -1 19
-9 22 -16z"/>
<path d="M5307 2678 c-21 -11 -22 -47 -2 -54 19 -8 45 13 45 36 0 22 -21 31
-43 18z m33 -18 c0 -12 -28 -25 -36 -17 -9 9 6 27 22 27 8 0 14 -5 14 -10z"/>
<path d="M702 2118 c-25 -25 -6 -68 30 -68 33 0 43 53 14 72 -16 11 -30 10
-44 -4z m48 -27 c0 -28 -21 -37 -36 -16 -16 22 -10 35 17 35 12 0 19 -7 19
-19z"/>
<path d="M5500 2111 c-25 -47 36 -83 64 -38 8 12 8 22 0 35 -16 25 -51 27 -64
3z m54 -10 c8 -13 -20 -45 -32 -37 -20 12 -14 46 7 46 11 0 22 -4 25 -9z"/>
<path d="M387 1693 c-13 -12 -7 -41 10 -47 20 -8 44 19 36 40 -5 14 -35 19
-46 7z m33 -18 c0 -8 -7 -15 -15 -15 -16 0 -20 12 -8 23 11 12 23 8 23 -8z"/>
<path d="M5827 1687 c-3 -9 0 -22 6 -32 17 -22 49 -9 45 19 -4 25 -43 34 -51
13z m41 -15 c2 -7 -3 -12 -12 -12 -9 0 -16 7 -16 16 0 17 22 14 28 -4z"/>
<path d="M252 1631 c-8 -5 -12 -21 -10 -37 2 -21 9 -30 26 -32 44 -7 67 32 36
62 -17 18 -32 20 -52 7z m51 -25 c6 -15 -11 -36 -29 -36 -14 0 -27 28 -18 41
8 14 41 11 47 -5z"/>
<path d="M5956 1624 c-29 -29 -12 -64 31 -64 27 0 42 42 23 65 -16 19 -35 19
-54 -1z m52 -27 c2 -9 -4 -20 -12 -23 -21 -8 -46 13 -39 32 8 20 47 13 51 -9z"/>
<path d="M280 1074 c-11 -12 -10 -18 3 -31 8 -9 23 -13 31 -10 21 8 21 43 0
51 -21 8 -20 8 -34 -10z m38 -15 c-2 -6 -8 -10 -13 -10 -5 0 -11 4 -13 10 -2
6 4 11 13 11 9 0 15 -5 13 -11z"/>
<path d="M5934 1075 c-8 -21 2 -45 19 -45 8 0 20 7 27 15 10 12 10 18 0 30 -7
8 -19 15 -27 15 -7 0 -16 -7 -19 -15z m34 -16 c-2 -6 -8 -10 -13 -10 -5 0 -11
4 -13 10 -2 6 4 11 13 11 9 0 15 -5 13 -11z"/>
<path d="M677 873 c-11 -10 -8 -51 4 -58 16 -11 56 3 63 21 4 9 1 23 -5 30
-12 15 -51 19 -62 7z m51 -26 c2 -11 -3 -17 -17 -17 -23 0 -35 15 -26 31 10
15 39 6 43 -14z"/>
<path d="M1827 784 c-15 -15 -6 -54 14 -64 17 -9 25 -8 40 6 29 27 21 58 -16
62 -17 2 -34 0 -38 -4z m53 -24 c0 -24 -26 -38 -42 -22 -16 16 -2 42 22 42 13
0 20 -7 20 -20z"/>
<path d="M4577 783 c-18 -18 7 -73 33 -73 17 0 40 32 40 56 0 21 -5 24 -33 24
-19 0 -37 -3 -40 -7z m58 -28 c0 -25 -40 -33 -49 -10 -9 24 2 37 27 33 14 -2
22 -10 22 -23z"/>
<path d="M1300 745 c-18 -21 -5 -47 22 -43 26 3 37 36 16 49 -18 12 -24 11
-38 -6z m34 -19 c-3 -8 -12 -12 -20 -9 -17 6 -9 23 11 23 8 0 12 -6 9 -14z"/>
<path d="M4050 739 c-10 -17 -9 -23 1 -30 24 -15 44 -5 44 21 0 32 -30 38 -45
9z m38 -10 c-2 -6 -8 -10 -13 -10 -5 0 -11 4 -13 10 -2 6 4 11 13 11 9 0 15
-5 13 -11z"/>
<path d="M1921 650 c-19 -11 -9 -45 14 -45 13 0 21 8 23 21 3 23 -17 37 -37
24z m27 -28 c2 -7 -3 -12 -12 -12 -9 0 -16 7 -16 16 0 17 22 14 28 -4z"/>
<path d="M4670 645 c-17 -20 -6 -45 20 -45 17 0 21 5 18 27 -4 31 -20 40 -38
18z m30 -21 c0 -9 -5 -14 -12 -12 -18 6 -21 28 -4 28 9 0 16 -7 16 -16z"/>
<path d="M3068 599 c-26 -15 -22 -48 7 -61 43 -19 73 23 39 56 -18 19 -23 19
-46 5z m42 -29 c0 -13 -7 -20 -20 -20 -13 0 -20 7 -20 20 0 13 7 20 20 20 13
0 20 -7 20 -20z"/>
<path d="M1073 344 c-9 -24 10 -49 38 -49 20 0 25 6 27 33 3 30 1 32 -28 32
-19 0 -33 -6 -37 -16z m52 -19 c0 -28 -29 -25 -33 3 -3 19 0 23 15 20 10 -2
18 -12 18 -23z"/>
<path d="M3831 346 c-18 -21 3 -56 33 -56 26 0 40 23 31 51 -8 23 -47 25 -64
5z m52 -10 c8 -20 -20 -43 -35 -28 -14 14 -3 42 16 42 7 0 16 -6 19 -14z"/>
<path d="M2320 325 c-20 -24 -3 -55 30 -55 34 0 44 12 36 46 -7 28 -46 33 -66
9z m48 -23 c2 -14 -2 -22 -12 -22 -19 0 -29 17 -22 36 8 22 30 12 34 -14z"/>
<path d="M5074 326 c-12 -31 0 -51 31 -51 27 0 30 3 30 30 0 25 -4 30 -28 33
-17 2 -29 -2 -33 -12z m50 -12 c8 -20 -1 -34 -20 -34 -20 0 -30 30 -13 41 20
12 26 11 33 -7z"/>
<path d="M2890 105 c-11 -13 -11 -19 4 -33 20 -20 51 -6 51 24 0 24 -37 30
-55 9z m40 -10 c0 -8 -7 -15 -15 -15 -16 0 -20 12 -8 23 11 12 23 8 23 -8z"/>
<path d="M5647 113 c-25 -24 12 -64 39 -42 23 19 17 49 -9 49 -13 0 -27 -3
-30 -7z m43 -13 c0 -12 -28 -25 -36 -17 -9 9 6 27 22 27 8 0 14 -5 14 -10z"/>
</g>
</svg>
